<?xml version="1.0" encoding="UTF-8" standalone="no"?>
<!DOCTYPE svg PUBLIC "-//W3C//DTD SVG 1.1//EN" "http://www.w3.org/Graphics/SVG/1.1/DTD/svg11.dtd">
<svg xmlns="http://www.w3.org/2000/svg" version="1.1" viewBox="0 0 2013 1041">
<g stroke-width="2.00" fill="none" stroke-linecap="butt">
<path stroke="#80abbc" vector-effect="non-scaling-stroke" d="
  M 179.46 330.25
  Q 177.99 329.91 176.93 330.92
  Q 133.06 372.72 18.55 481.43
  A 1.16 1.15 68.6 0 0 18.19 482.27
  Q 18.19 482.96 18.50 483.54"
/>
<path stroke="#80c9e4" vector-effect="non-scaling-stroke" d="
  M 18.50 483.54
  L 18.29 567.75"
/>
<path stroke="#80bad0" vector-effect="non-scaling-stroke" d="
  M 18.29 567.75
  L 18.29 660.50"
/>
<path stroke="#80abbc" vector-effect="non-scaling-stroke" d="
  M 18.29 660.50
  Q 18.29 683.13 18.17 705.85
  Q 18.15 709.94 19.17 713.59
  C 41.32 792.64 108.56 839.14 189.51 839.46
  Q 211.59 839.54 233.71 839.49
  A 1.26 1.24 23.0 0 0 234.57 839.15
  Q 236.72 837.14 238.72 834.97
  C 280.64 789.32 318.88 739.24 349.57 685.32
  C 363.67 660.54 376.82 633.21 384.75 605.77"
/>
<path stroke="#80bad0" vector-effect="non-scaling-stroke" d="
  M 384.75 605.77
  C 391.92 583.54 395.00 561.55 395.01 538.24
  Q 395.02 518.37 394.96 498.50"
/>
<path stroke="#80c9e4" vector-effect="non-scaling-stroke" d="
  M 394.96 498.50
  L 394.96 361.50"
/>
<path stroke="#83d6f4" vector-effect="non-scaling-stroke" d="
  M 394.96 361.50
  L 395.07 314.97
  A 1.25 1.24 10.8 0 0 394.26 313.79
  Q 376.35 307.09 358.67 300.40
  C 355.99 299.38 354.26 300.02 351.50 300.50
  Q 213.02 324.19 180.56 329.79
  Q 180.19 329.85 179.46 330.25"
/>
<path stroke="#049fd8" vector-effect="non-scaling-stroke" d="
  M 394.96 361.50
  L 392.57 365.38
  A 1.51 1.46 -33.1 0 0 392.36 366.30
  C 392.67 370.05 393.47 388.91 392.17 391.27
  Q 391.94 391.67 391.75 391.25
  L 391.47 390.67
  Q 391.15 389.96 390.72 390.61
  L 389.13 392.99
  A 0.70 0.70 0.0 0 1 388.56 393.31
  Q 384.02 393.46 381.65 394.66
  C 379.64 395.67 378.73 395.93 376.76 395.97
  A 0.50 0.50 0.0 0 1 376.25 395.47
  L 376.26 393.57
  A 0.72 0.72 0.0 0 0 375.59 392.85
  L 372.21 392.61
  A 0.92 0.92 0.0 0 1 371.40 391.99
  L 369.04 385.50"
/>
<path stroke="#5bc9f1" vector-effect="non-scaling-stroke" d="
  M 369.04 385.50
  L 368.96 362.50"
/>
<path stroke="#69cef3" vector-effect="non-scaling-stroke" d="
  M 368.96 362.50
  L 368.99 352.71
  A 0.45 0.44 85.1 0 0 368.47 352.27
  L 233.25 374.79"
/>
<path stroke="#049fd8" vector-effect="non-scaling-stroke" d="
  M 233.25 374.79
  L 230.40 374.91
  A 1.34 1.30 -67.9 0 0 229.52 375.30
  Q 223.10 381.71 212.67 390.18
  Q 211.66 391.00 206.85 395.61
  A 1.06 1.04 25.6 0 1 206.01 395.90
  Q 204.39 395.73 202.43 396.67
  C 194.68 400.38 183.69 405.71 173.84 408.06
  Q 166.08 409.91 158.43 412.13
  Q 156.40 412.73 153.35 412.52
  A 1.56 1.54 30.1 0 0 152.38 412.77
  Q 150.63 413.91 149.61 415.65
  A 0.84 0.82 19.1 0 1 148.76 416.05
  Q 146.82 415.73 145.36 416.90
  Q 143.49 418.40 144.61 416.28
  Q 145.64 414.35 147.20 412.81
  Q 147.73 412.28 147.00 412.48
  Q 146.60 412.58 146.27 412.90
  Q 146.05 413.11 146.08 412.81
  Q 146.11 412.50 145.96 412.25"
/>
<path stroke="#0482b0" vector-effect="non-scaling-stroke" d="
  M 145.96 412.25
  L 208.90 352.38
  A 0.50 0.50 0.0 0 0 208.84 351.61
  L 179.61 331.42
  A 0.76 0.75 -66.5 0 1 179.30 330.62
  Q 179.35 330.41 179.46 330.25"
/>
<path stroke="#0175a0" vector-effect="non-scaling-stroke" d="
  M 145.96 412.25
  L 47.68 505.70
  A 0.82 0.81 -46.9 0 1 46.59 505.74
  L 20.17 483.80
  A 1.40 1.37 62.3 0 0 19.22 483.49
  L 18.50 483.54"
/>
<path stroke="#80c9e4" vector-effect="non-scaling-stroke" d="
  M 233.25 374.96
  Q 231.72 374.98 230.45 376.20
  Q 159.35 444.48 88.16 512.77
  A 1.38 1.35 68.7 0 0 87.74 513.76
  L 87.71 541.50"
/>
<path stroke="#0184b5" vector-effect="non-scaling-stroke" d="
  M 87.71 541.50
  L 87.25 550.72
  A 1.46 1.46 0.0 0 1 86.94 551.56
  Q 86.71 551.84 86.66 552.23
  Q 86.63 552.51 86.50 552.26
  L 86.35 551.97
  A 0.39 0.38 51.5 0 0 85.71 551.89
  C 79.59 559.06 66.30 560.54 57.36 562.80
  C 54.72 563.47 50.38 563.60 46.90 565.54
  A 1.78 1.74 -58.1 0 1 45.96 565.77
  Q 41.75 565.64 37.75 566.96
  Q 36.14 567.50 27.89 567.78
  C 26.04 567.84 23.77 567.17 21.37 567.07
  Q 18.42 566.95 18.75 563.55
  Q 18.78 563.24 18.73 563.55
  Q 18.40 565.60 18.29 567.75"
/>
<path stroke="#beebfc" vector-effect="non-scaling-stroke" d="
  M 368.96 362.50
  L 368.75 362.11
  Q 368.39 361.46 368.35 362.20
  L 368.24 364.25
  Q 368.20 364.83 368.09 364.16
  C 367.86 362.69 366.36 362.77 365.39 363.51
  Q 360.16 367.51 354.96 371.56
  Q 353.37 372.80 351.70 373.91
  A 0.97 0.96 -16.1 0 0 351.26 374.70
  L 351.25 375.20
  A 0.31 0.31 0.0 0 1 350.81 375.48
  C 350.39 375.29 349.92 375.20 349.50 375.47
  C 341.29 380.84 332.59 385.80 324.57 390.99
  C 314.29 397.65 303.22 405.02 292.03 409.99
  Q 289.91 410.93 287.67 412.41
  C 271.59 423.02 253.59 434.22 233.90 444.72
  A 1.26 1.17 -0.2 0 0 233.43 445.16
  Q 233.15 445.63 232.64 445.49
  A 0.31 0.31 0.0 0 0 232.25 445.79
  L 232.25 501.03
  A 1.89 1.87 76.0 0 1 231.26 502.69
  C 225.46 505.82 220.13 513.95 213.25 522.73
  Q 208.78 528.44 199.02 537.74
  Q 198.51 538.23 199.20 538.37
  L 199.98 538.53
  A 0.35 0.34 25.8 0 1 200.18 539.09
  Q 192.69 547.99 169.81 573.81
  Q 165.57 578.59 163.69 580.13
  A 0.15 0.14 -40.6 0 1 163.49 580.12
  L 163.26 579.86
  A 0.36 0.36 0.0 0 0 162.72 579.86
  C 160.77 582.05 158.87 585.42 155.56 585.54
  A 1.45 1.42 26.5 0 0 154.78 585.79
  Q 151.88 587.81 150.98 591.13
  A 1.57 1.52 81.0 0 1 150.36 592.01
  Q 148.19 593.51 147.21 595.99
  A 1.10 1.09 -89.3 0 1 146.57 596.62
  Q 145.39 597.06 145.74 598.10
  A 0.65 0.65 0.0 0 1 145.28 598.94
  L 143.75 599.33
  A 0.50 0.50 0.0 0 0 143.37 599.80
  C 143.30 601.90 141.09 601.49 140.60 603.18
  Q 140.55 603.37 140.72 603.27
  L 140.98 603.12
  Q 141.29 602.94 141.14 603.26
  Q 140.03 605.62 138.09 607.27
  A 1.04 1.00 -20.3 0 0 137.73 608.02
  Q 137.69 610.17 135.71 611.12
  A 1.84 1.76 -85.5 0 0 134.97 611.78
  C 133.20 614.50 130.49 616.59 128.75 618.81
  C 120.20 629.78 110.13 639.50 101.31 650.30
  Q 100.13 651.74 93.61 657.70
  A 1.52 1.51 76.0 0 0 93.16 658.46
  Q 92.55 660.94 90.19 661.94
  Q 89.39 662.28 90.25 662.26
  L 90.99 662.24
  Q 92.24 662.20 91.07 662.65
  Q 89.10 663.42 87.79 665.00"
/>
<path stroke="#67a3bb" vector-effect="non-scaling-stroke" d="
  M 87.79 665.00
  L 87.77 652.54"
/>
<path stroke="#66b2cf" vector-effect="non-scaling-stroke" d="
  M 87.77 652.54
  L 87.79 592.25"
/>
<path stroke="#e6f7fe" vector-effect="non-scaling-stroke" d="
  M 87.79 592.25
  L 88.94 588.56
  A 0.35 0.35 0.0 0 1 89.50 588.39
  Q 91.17 589.72 92.76 588.23
  C 94.85 586.28 97.19 584.56 99.37 582.67
  Q 99.86 582.25 99.73 582.88
  L 99.67 583.20
  Q 99.55 583.80 99.99 583.38
  Q 104.00 579.51 107.17 574.92
  C 110.79 569.68 116.07 566.15 120.16 561.19
  Q 129.66 549.68 139.84 538.76
  C 143.48 534.86 145.83 529.87 149.56 525.68
  C 152.32 522.57 154.68 519.21 157.58 516.24
  C 159.96 513.79 161.52 510.10 163.79 508.03
  C 169.12 503.16 174.38 496.59 178.39 492.30
  Q 183.16 487.19 187.71 481.86
  A 0.32 0.31 -50.6 0 0 187.67 481.41
  L 187.43 481.22
  A 0.25 0.25 0.0 0 1 187.45 480.82
  C 189.42 479.54 190.79 477.69 192.46 476.18
  C 198.65 470.58 203.07 462.93 208.88 456.71
  C 213.15 452.14 216.61 446.95 221.35 442.85
  Q 223.43 441.05 224.76 438.88
  C 226.36 436.27 228.26 432.61 231.46 432.51
  A 0.53 0.53 0.0 0 0 231.97 431.98
  L 232.26 378.67
  A 1.28 1.25 -23.9 0 1 232.61 377.80
  Q 233.82 376.57 233.25 374.96"
/>
<path stroke="#67c1e3" vector-effect="non-scaling-stroke" d="
  M 233.25 374.96
  L 233.25 374.79"
/>
<path stroke="#0184b5" vector-effect="non-scaling-stroke" d="
  M 394.96 498.50
  Q 394.19 499.62 393.97 500.87
  A 0.22 0.22 0.0 0 1 393.69 501.04
  C 392.22 500.60 391.13 507.74 391.03 508.99
  Q 390.82 511.60 388.66 513.48
  A 1.39 1.38 -65.8 0 1 387.78 513.82
  Q 380.74 513.97 377.57 515.58
  Q 373.75 517.53 371.60 517.76
  A 0.75 0.75 0.0 0 0 371.02 518.17
  L 370.85 518.52
  Q 370.56 519.12 370.34 518.49
  L 370.14 517.92
  Q 370.02 517.57 369.84 517.89
  Q 369.54 518.46 369.04 518.25"
/>
<path stroke="#25acde" vector-effect="non-scaling-stroke" d="
  M 369.04 518.25
  L 368.54 509.50"
/>
<path stroke="#80c9e4" vector-effect="non-scaling-stroke" d="
  M 368.54 509.50
  Q 369.14 507.43 369.82 506.31
  Q 376.86 494.64 383.81 482.76
  A 0.51 0.50 30.8 0 0 383.63 482.08
  L 368.71 473.00"
/>
<path stroke="#25acde" vector-effect="non-scaling-stroke" d="
  M 368.71 473.00
  L 368.96 462.50"
/>
<path stroke="#58bce1" vector-effect="non-scaling-stroke" d="
  M 368.96 462.50
  L 369.04 385.50"
/>
<path stroke="#7cd6f7" vector-effect="non-scaling-stroke" d="
  M 368.96 462.50
  L 368.10 464.03
  A 0.39 0.39 0.0 0 1 367.48 464.10
  C 365.08 461.50 361.82 460.21 359.45 458.80
  Q 356.39 456.98 353.17 455.44
  C 351.15 454.46 348.64 454.64 346.55 452.87
  Q 346.16 452.54 345.67 452.44
  C 339.47 451.16 333.03 449.78 327.94 451.73
  Q 325.70 452.58 323.36 454.82
  Q 313.79 463.94 306.60 474.98
  C 303.41 479.88 300.16 483.64 296.58 487.80
  C 292.76 492.23 288.44 499.01 283.20 503.88
  C 282.78 504.28 282.86 504.26 282.89 504.76
  A 1.11 1.10 65.5 0 1 282.58 505.60
  C 279.96 508.36 278.54 511.92 276.12 514.44
  Q 274.24 516.40 272.33 518.32
  C 271.83 518.83 271.32 520.78 270.68 521.74
  C 266.99 527.21 261.89 535.67 260.37 536.49
  Q 259.92 536.72 259.65 537.15
  Q 255.10 544.23 249.41 550.40
  A 1.79 1.73 -19.3 0 0 248.97 551.28
  Q 248.79 552.23 248.23 552.97
  Q 242.80 560.18 237.40 567.40
  Q 235.62 569.77 231.18 582.51
  Q 230.30 585.03 225.54 593.66
  C 224.47 595.61 223.05 596.91 221.77 598.75
  C 217.62 604.69 210.50 610.72 202.75 609.99
  C 187.62 608.56 174.14 602.91 163.48 618.47
  Q 162.00 620.63 160.48 622.74
  Q 159.43 624.21 158.73 625.87
  C 156.23 631.76 153.86 636.44 156.20 642.80
  Q 158.15 648.13 161.56 651.82"
/>
<path stroke="#d7f3fd" vector-effect="non-scaling-stroke" d="
  M 161.56 651.82
  L 160.94 653.68
  A 0.65 0.64 25.1 0 0 161.22 654.44
  L 171.54 660.75"
/>
<path stroke="#7cd6f7" vector-effect="non-scaling-stroke" d="
  M 171.54 660.75
  Q 171.49 661.20 171.65 661.56
  A 0.38 0.38 0.0 0 1 171.43 662.07
  C 169.65 662.72 171.91 667.44 172.37 668.35
  C 176.32 676.06 174.75 684.41 168.91 690.66
  Q 154.85 705.68 141.48 721.31
  C 135.46 728.37 129.60 735.37 123.21 741.98
  C 122.49 742.73 122.45 743.41 121.41 744.08
  C 118.14 746.20 117.52 749.94 114.55 751.99
  Q 113.41 752.78 112.18 753.44
  Q 110.33 754.44 109.21 756.21
  L 106.96 759.75"
/>
<path stroke="#589fb9" vector-effect="non-scaling-stroke" d="
  M 106.96 759.75
  Q 93.21 743.10 89.12 722.40
  Q 87.75 715.48 87.74 702.99
  Q 87.73 684.00 87.79 665.00"
/>
<path stroke="#80bad0" vector-effect="non-scaling-stroke" d="
  M 87.79 592.25
  L 87.71 541.50"
/>
<path stroke="#01668d" vector-effect="non-scaling-stroke" d="
  M 87.77 652.54
  Q 84.84 655.66 80.97 657.22
  Q 79.62 657.77 73.86 658.58
  Q 68.73 659.30 64.00 661.66
  A 0.46 0.45 -10.5 0 0 63.76 662.00
  C 63.71 662.43 59.43 662.24 58.86 662.25
  C 54.28 662.30 50.88 664.88 46.11 664.91
  Q 39.58 664.95 33.28 666.70
  Q 29.47 667.75 27.72 667.88
  Q 25.15 668.08 22.56 667.83
  Q 19.86 667.58 19.27 664.93
  L 18.29 660.50"
/>
<path stroke="#0482b0" vector-effect="non-scaling-stroke" d="
  M 175.00 798.04
  Q 201.76 804.00 229.19 803.46
  Q 231.19 803.42 232.75 802.29"
/>
<path stroke="#a4e2fa" vector-effect="non-scaling-stroke" d="
  M 368.54 509.50
  C 368.02 510.04 367.38 510.35 366.99 511.01
  Q 308.19 608.83 249.39 706.77
  A 0.61 0.60 -59.1 0 1 248.57 706.98
  L 171.54 660.75"
/>
<path stroke="#83d6f4" vector-effect="non-scaling-stroke" d="
  M 210.96 628.00
  L 232.23 640.66
  A 0.42 0.41 30.6 0 0 232.80 640.52
  L 308.79 514.00"
/>
<path stroke="#a4e2fa" vector-effect="non-scaling-stroke" d="
  M 368.71 473.00
  L 343.26 457.86
  A 0.58 0.58 0.0 0 0 342.47 458.06
  L 308.79 514.00"
/>
<path stroke="#27b9ee" vector-effect="non-scaling-stroke" d="
  M 308.79 514.00
  Q 308.59 512.73 307.23 512.73
  A 0.90 0.89 -74.7 0 0 306.46 513.17
  Q 305.64 514.57 304.34 515.57
  Q 303.93 515.89 303.65 516.33
  Q 302.95 517.46 301.50 517.43
  A 1.07 1.06 -69.8 0 0 300.65 517.83
  C 298.40 520.70 295.19 522.23 292.96 524.57
  Q 290.49 527.17 288.01 529.75
  Q 287.67 530.11 287.52 530.59
  C 286.91 532.61 284.84 533.57 283.89 534.65
  C 278.35 540.88 273.18 547.39 267.84 553.80
  Q 264.55 557.76 261.98 562.24
  C 261.11 563.74 259.54 565.54 258.39 567.74
  Q 255.33 573.58 249.66 580.42
  C 247.64 582.86 245.84 585.74 243.75 588.30
  C 241.08 591.57 239.68 594.89 237.72 598.46
  A 1.77 1.77 0.0 0 1 237.06 599.12
  C 235.38 600.05 232.05 607.57 231.39 608.95
  C 226.47 619.32 220.12 622.03 210.96 628.00"
/>
<path stroke="#a4e2fa" vector-effect="non-scaling-stroke" d="
  M 210.96 628.00
  L 185.46 612.88
  A 0.37 0.35 -58.8 0 0 184.97 613.01
  L 161.56 651.82"
/>
<path stroke="#258eb6" vector-effect="non-scaling-stroke" d="
  M 354.04 616.25
  C 332.29 676.06 295.87 733.55 254.61 781.53
  C 248.75 788.34 242.50 794.32 235.93 800.18
  Q 234.48 801.48 232.75 802.29"
/>
<path stroke="#27b9ee" vector-effect="non-scaling-stroke" d="
  M 232.75 802.29
  C 231.37 800.89 232.16 736.55 232.10 729.04
  Q 232.09 728.35 231.85 728.99
  L 231.71 729.36
  A 0.27 0.26 23.0 0 1 231.35 729.50
  Q 228.42 728.17 227.04 731.21
  Q 226.82 731.70 226.40 732.02
  Q 223.25 734.47 223.48 738.54
  A 1.12 1.09 66.6 0 1 223.15 739.40
  Q 222.00 740.56 221.66 741.17
  Q 217.91 747.92 211.57 752.32
  C 209.63 753.67 208.18 758.71 205.52 760.97
  C 203.24 762.91 201.16 764.39 199.26 766.76
  Q 193.18 774.35 186.96 781.84
  C 183.10 786.49 179.35 790.26 176.53 795.78
  Q 175.99 796.82 175.03 797.32
  Q 174.85 797.41 175.03 797.51
  L 175.30 797.67
  A 0.19 0.19 0.0 0 1 175.30 798.00
  Q 175.18 798.07 175.00 798.04"
/>
<path stroke="#258eb6" vector-effect="non-scaling-stroke" d="
  M 175.00 798.04
  C 149.48 792.80 123.38 780.20 106.96 759.75"
/>
<path stroke="#01668d" vector-effect="non-scaling-stroke" d="
  M 384.75 605.77
  Q 382.01 608.25 377.76 610.02
  Q 364.51 615.53 357.46 618.10
  A 1.27 1.24 45.6 0 1 356.52 618.08
  Q 355.02 617.47 354.04 616.25"
/>
<path stroke="#249dcb" vector-effect="non-scaling-stroke" d="
  M 354.04 616.25
  Q 365.43 585.97 368.16 553.89
  C 369.07 543.16 368.84 530.10 369.04 518.25"
/>
<path stroke="#80969e" vector-effect="non-scaling-stroke" d="
  M 665.54 511.23
  C 657.13 555.53 677.74 599.38 723.52 611.47
  C 748.65 618.10 778.13 615.93 800.47 602.46
  C 832.98 582.86 844.31 544.48 836.60 508.68
  C 826.43 461.42 782.56 440.36 737.50 445.78
  C 700.65 450.21 672.62 473.88 665.54 511.23"
/>
<path stroke="#80969e" vector-effect="non-scaling-stroke" d="
  M 1024.76 544.73
  C 1030.70 588.10 1066.26 614.83 1109.01 614.98
  C 1133.98 615.07 1157.18 611.09 1178.82 599.71
  A 0.82 0.81 76.0 0 0 1179.25 598.99
  L 1179.25 515.50
  A 0.50 0.50 0.0 0 0 1178.75 515.00
  L 1116.25 515.00
  A 0.50 0.50 0.0 0 0 1115.75 515.50
  L 1115.75 547.50
  A 0.50 0.50 0.0 0 0 1116.25 548.00
  L 1144.25 548.00
  A 0.50 0.50 0.0 0 1 1144.75 548.50
  L 1144.75 573.42
  A 0.76 0.76 0.0 0 1 1144.33 574.10
  C 1113.07 589.72 1072.12 582.77 1062.69 544.20
  C 1054.59 511.06 1074.04 479.92 1109.22 478.20
  C 1124.87 477.43 1139.34 481.88 1150.29 493.22
  A 0.48 0.48 0.0 0 0 1150.99 493.21
  L 1175.71 466.29
  A 0.55 0.54 -48.0 0 0 1175.68 465.52
  Q 1161.55 452.72 1142.57 448.41
  C 1117.07 442.63 1087.42 443.23 1064.55 456.05
  C 1032.25 474.16 1019.85 508.93 1024.76 544.73"
/>
<path stroke="#80969e" vector-effect="non-scaling-stroke" d="
  M 1508.44 526.56
  C 1520.58 537.33 1535.78 540.97 1550.71 545.85
  Q 1561.47 549.36 1566.12 553.09
  C 1579.10 563.50 1570.63 578.05 1556.99 580.80
  Q 1532.92 585.65 1517.06 566.87
  A 0.46 0.46 0.0 0 0 1516.37 566.86
  L 1491.48 594.26
  A 0.44 0.43 -47.4 0 0 1491.50 594.87
  C 1510.41 612.50 1534.51 617.33 1559.99 613.97
  C 1592.72 609.65 1613.75 584.40 1607.32 550.78
  C 1602.36 524.86 1575.67 519.38 1554.84 512.81
  C 1546.79 510.27 1534.59 506.01 1533.86 496.14
  C 1533.23 487.63 1539.60 481.75 1547.50 479.75
  Q 1568.27 474.48 1583.47 488.40
  A 0.51 0.50 42.2 0 0 1584.19 488.37
  L 1607.78 462.55
  A 0.81 0.80 41.3 0 0 1607.70 461.40
  C 1581.40 438.88 1529.23 437.99 1506.72 466.85
  C 1494.01 483.16 1491.16 511.24 1508.44 526.56"
/>
<path stroke="#80969e" vector-effect="non-scaling-stroke" d="
  M 644.93 504.58
  C 633.88 464.52 594.67 449.04 556.25 449.01
  Q 527.43 448.99 498.70 449.01
  A 0.45 0.45 0.0 0 0 498.25 449.46
  L 498.25 610.46
  A 0.49 0.49 0.0 0 0 498.74 610.95
  Q 525.99 611.06 553.23 610.97
  Q 564.93 610.93 570.61 610.29
  C 602.22 606.71 632.92 589.26 643.77 557.81
  C 649.42 541.43 649.48 521.08 644.93 504.58"
/>
<path stroke="#80969e" vector-effect="non-scaling-stroke" d="
  M 862.41 549.18
  C 862.59 591.11 890.30 614.74 930.72 615.10
  C 970.90 615.47 999.19 590.70 999.22 549.24
  Q 999.26 499.40 999.23 449.52
  A 0.52 0.51 90.0 0 0 998.72 449.00
  L 963.75 449.00
  A 0.52 0.52 0.0 0 0 963.23 449.52
  Q 963.29 495.89 963.22 542.26
  Q 963.20 553.06 961.75 558.20
  C 953.11 588.91 910.26 589.92 900.39 559.51
  Q 898.29 553.02 898.28 546.00
  Q 898.25 497.77 898.24 449.52
  A 0.52 0.52 0.0 0 0 897.72 449.00
  L 862.76 449.00
  A 0.49 0.49 0.0 0 0 862.27 449.49
  Q 862.19 499.34 862.41 549.18"
/>
<path stroke="#80969e" vector-effect="non-scaling-stroke" d="
  M 1313.75 578.57
  A 0.57 0.57 0.0 0 0 1313.18 578.00
  L 1248.32 578.00
  A 0.57 0.57 0.0 0 1 1247.75 577.43
  L 1247.75 449.57
  A 0.57 0.57 0.0 0 0 1247.18 449.00
  L 1212.32 449.00
  A 0.57 0.57 0.0 0 0 1211.75 449.57
  L 1211.75 610.43
  A 0.57 0.57 0.0 0 0 1212.32 611.00
  L 1313.18 611.00
  A 0.57 0.57 0.0 0 0 1313.75 610.43
  L 1313.75 578.57"
/>
<path stroke="#80969e" vector-effect="non-scaling-stroke" d="
  M 1369.69 577.24
  A 0.38 0.38 0.0 0 1 1370.05 577.00
  L 1432.24 577.00
  A 0.38 0.38 0.0 0 1 1432.59 577.24
  L 1446.35 610.76
  A 0.38 0.38 0.0 0 0 1446.70 611.00
  L 1486.50 611.00
  A 0.38 0.38 0.0 0 0 1486.85 610.47
  L 1416.65 449.22
  A 0.38 0.38 0.0 0 0 1416.30 448.99
  L 1386.93 449.02
  A 0.38 0.38 0.0 0 0 1386.58 449.25
  L 1316.86 610.47
  A 0.38 0.38 0.0 0 0 1317.21 611.00
  L 1356.08 611.00
  A 0.38 0.38 0.0 0 0 1356.44 610.76
  L 1369.69 577.24"
/>
<path stroke="#80abbc" vector-effect="non-scaling-stroke" d="
  M 1841.26 521.75
  C 1837.36 568.63 1853.65 611.75 1907.47 613.93
  C 1944.67 615.43 1973.63 597.87 1978.64 559.24
  A 0.44 0.43 -86.5 0 0 1978.21 558.75
  L 1936.52 558.75
  A 0.61 0.61 0.0 0 0 1935.93 559.22
  C 1933.02 572.18 1927.35 581.91 1912.60 582.08
  C 1894.14 582.29 1888.25 563.93 1886.75 549.00
  C 1884.79 529.38 1883.05 479.79 1915.34 483.33
  C 1929.09 484.84 1932.44 493.18 1935.28 505.20
  A 0.73 0.71 -6.5 0 0 1935.99 505.75
  L 1977.67 505.75
  A 0.22 0.22 0.0 0 0 1977.89 505.51
  C 1976.31 475.25 1955.75 456.23 1926.75 452.23
  C 1877.99 445.49 1845.29 473.29 1841.26 521.75"
/>
<path stroke="#80abbc" vector-effect="non-scaling-stroke" d="
  M 1745.25 554.56
  Q 1757.10 554.51 1768.93 554.29
  C 1793.73 553.83 1818.30 542.47 1823.93 516.19
  C 1832.65 475.48 1802.44 454.14 1765.75 454.06
  Q 1733.93 453.99 1702.20 454.01
  A 0.45 0.45 0.0 0 0 1701.75 454.46
  L 1701.75 610.50
  A 0.50 0.50 0.0 0 0 1702.25 611.00
  L 1744.25 611.00
  A 0.50 0.50 0.0 0 0 1744.75 610.50
  L 1744.75 555.06
  A 0.50 0.50 0.0 0 1 1745.25 554.56"
/>
<path stroke="#83d6f4" vector-effect="non-scaling-stroke" d="
  M 796.12 723.21
  C 801.42 738.80 815.52 748.49 832.10 742.09
  Q 838.25 739.71 842.59 732.53
  A 0.76 0.75 37.9 0 0 842.47 731.60
  L 837.77 726.89
  A 0.49 0.49 0.0 0 0 837.01 726.98
  C 830.19 737.74 818.75 740.96 809.82 730.32
  C 798.28 716.57 797.06 672.70 814.48 662.33
  C 822.54 657.53 831.17 661.02 836.51 668.14
  A 0.60 0.60 0.0 0 0 837.42 668.21
  L 841.82 663.79
  A 1.61 1.61 0.0 0 0 841.92 661.64
  Q 836.16 654.68 827.24 653.30
  C 807.75 650.27 797.01 665.31 793.61 682.31
  Q 789.39 703.42 796.12 723.21"
/>
<path stroke="#83d6f4" vector-effect="non-scaling-stroke" d="
  M 1154.41 738.09
  C 1160.71 744.03 1170.47 745.60 1178.34 742.72
  C 1205.29 732.85 1204.94 672.14 1183.78 657.21
  C 1176.75 652.24 1167.26 651.54 1159.54 655.25
  C 1148.36 660.62 1143.46 674.13 1142.03 686.02
  C 1139.90 703.73 1140.95 725.41 1154.41 738.09"
/>
<path stroke="#83d6f4" vector-effect="non-scaling-stroke" d="
  M 1365.44 738.06
  Q 1374.89 746.53 1386.70 743.50
  C 1411.95 737.02 1412.18 697.42 1407.57 678.35
  C 1404.21 664.48 1394.86 651.58 1378.87 652.97
  C 1368.90 653.84 1360.18 661.47 1356.73 670.80
  C 1349.62 689.98 1349.23 723.54 1365.44 738.06"
/>
<path stroke="#83d6f4" vector-effect="non-scaling-stroke" d="
  M 1513.47 664.79
  C 1514.66 665.71 1515.62 667.27 1516.80 668.38
  A 0.56 0.56 0.0 0 0 1517.59 668.35
  L 1521.92 663.71
  A 1.40 1.38 48.6 0 0 1522.02 661.95
  Q 1517.46 655.66 1509.50 653.81
  C 1489.05 649.06 1477.26 664.18 1473.59 682.16
  C 1469.35 702.93 1471.80 741.69 1501.01 743.94
  Q 1513.81 744.92 1523.38 737.41
  A 0.97 0.94 -19.5 0 0 1523.75 736.66
  L 1523.75 695.50
  A 0.50 0.50 0.0 0 0 1523.25 695.00
  L 1503.38 695.00
  A 0.63 0.63 0.0 0 0 1502.75 695.63
  L 1502.75 701.34
  A 0.60 0.60 0.0 0 0 1503.34 701.94
  L 1514.59 702.15
  A 0.69 0.68 -89.6 0 1 1515.26 702.84
  L 1515.22 731.33
  Q 1515.22 733.10 1513.70 734.01
  Q 1508.61 737.07 1502.73 736.79
  C 1467.44 735.11 1478.42 637.63 1513.47 664.79"
/>
<path stroke="#83d6f4" vector-effect="non-scaling-stroke" d="
  M 1777.44 695.56
  C 1783.30 700.38 1791.85 703.70 1796.46 708.03
  C 1802.49 713.71 1804.71 724.68 1798.85 731.80
  C 1791.59 740.63 1779.14 736.56 1772.92 728.80
  A 0.51 0.50 -44.0 0 0 1772.14 728.79
  L 1767.43 734.21
  A 0.65 0.65 0.0 0 0 1767.44 735.08
  Q 1773.94 741.98 1782.71 743.64
  C 1811.32 749.04 1820.56 712.26 1799.23 698.24
  C 1787.59 690.59 1773.14 686.47 1779.69 668.97
  C 1783.95 657.58 1798.08 657.83 1804.82 666.39
  A 0.48 0.48 0.0 0 0 1805.56 666.41
  L 1810.32 661.00
  A 0.62 0.61 47.0 0 0 1810.34 660.21
  C 1803.13 651.06 1786.47 650.92 1777.92 657.58
  C 1766.92 666.16 1766.87 686.87 1777.44 695.56"
/>
<path stroke="#83d6f4" vector-effect="non-scaling-stroke" d="
  M 592.00 661.56
  A 0.44 0.44 0.0 0 0 592.44 662.00
  L 608.06 662.00
  A 0.44 0.44 0.0 0 1 608.50 662.44
  L 608.50 741.56
  A 0.44 0.44 0.0 0 0 608.94 742.00
  L 616.81 742.00
  A 0.44 0.44 0.0 0 0 617.25 741.56
  L 617.25 662.44
  A 0.44 0.44 0.0 0 1 617.69 662.00
  L 633.81 662.00
  A 0.44 0.44 0.0 0 0 634.25 661.56
  L 634.25 655.44
  A 0.44 0.44 0.0 0 0 633.81 655.00
  L 592.44 655.00
  A 0.44 0.44 0.0 0 0 592.00 655.44
  L 592.00 661.56"
/>
<path stroke="#83d6f4" vector-effect="non-scaling-stroke" d="
  M 704.10 692.72
  A 0.60 0.60 0.0 0 1 703.50 692.12
  L 703.50 662.60
  A 0.60 0.60 0.0 0 1 704.10 662.00
  L 729.40 662.00
  A 0.60 0.60 0.0 0 0 730.00 661.40
  L 730.00 655.60
  A 0.60 0.60 0.0 0 0 729.40 655.00
  L 695.35 655.00
  A 0.60 0.60 0.0 0 0 694.75 655.60
  L 694.75 741.40
  A 0.60 0.60 0.0 0 0 695.35 742.00
  L 730.65 742.00
  A 0.60 0.60 0.0 0 0 731.25 741.40
  L 731.25 735.68
  A 0.60 0.60 0.0 0 0 730.66 735.08
  L 704.09 734.75
  A 0.60 0.60 0.0 0 1 703.50 734.15
  L 703.50 700.60
  A 0.60 0.60 0.0 0 1 704.10 700.00
  L 727.90 700.00
  A 0.60 0.60 0.0 0 0 728.50 699.40
  L 728.50 693.42
  A 0.60 0.60 0.0 0 0 727.90 692.82
  L 704.10 692.72"
/>
<path stroke="#83d6f4" vector-effect="non-scaling-stroke" d="
  M 913.75 692.19
  L 913.75 655.50
  A 0.51 0.50 90.0 0 0 913.25 654.99
  L 905.15 655.01
  A 0.40 0.40 0.0 0 0 904.75 655.41
  L 904.75 741.37
  A 0.63 0.63 0.0 0 0 905.38 742.00
  L 913.13 742.00
  A 0.63 0.62 90.0 0 0 913.75 741.37
  L 913.75 700.56
  A 0.57 0.57 0.0 0 1 914.32 699.99
  L 946.14 700.02
  A 0.62 0.61 -90.0 0 1 946.75 700.64
  L 946.75 741.37
  A 0.63 0.63 0.0 0 0 947.38 742.00
  L 955.12 742.00
  A 0.63 0.63 0.0 0 0 955.75 741.37
  L 955.75 655.61
  A 0.64 0.63 -0.0 0 0 955.11 654.98
  L 947.32 655.04
  A 0.58 0.58 0.0 0 0 946.75 655.62
  L 946.75 692.25
  A 0.66 0.65 2.8 0 1 946.03 692.90
  C 937.32 692.12 928.07 693.31 914.25 692.71
  A 0.52 0.52 0.0 0 1 913.75 692.19"
/>
<path stroke="#83d6f4" vector-effect="non-scaling-stroke" d="
  M 1034.41 670.72
  A 0.18 0.18 0.0 0 1 1034.62 670.82
  L 1064.47 741.90
  A 0.18 0.18 0.0 0 0 1064.64 742.01
  L 1075.07 741.99
  A 0.18 0.18 0.0 0 0 1075.25 741.81
  L 1075.25 655.18
  A 0.18 0.18 0.0 0 0 1075.07 655.00
  L 1067.18 655.00
  A 0.18 0.18 0.0 0 0 1067.00 655.18
  L 1066.99 726.37
  A 0.18 0.18 0.0 0 1 1066.64 726.44
  L 1036.86 655.10
  A 0.18 0.18 0.0 0 0 1036.69 654.99
  L 1025.93 655.01
  A 0.18 0.18 0.0 0 0 1025.75 655.19
  L 1025.75 741.82
  A 0.18 0.18 0.0 0 0 1025.93 742.00
  L 1033.82 742.00
  A 0.18 0.18 0.0 0 0 1034.00 741.82
  L 1034.00 670.97
  A 0.18 0.18 0.0 0 1 1034.13 670.79
  L 1034.41 670.72"
/>
<path stroke="#83d6f4" vector-effect="non-scaling-stroke" d="
  M 1299.50 735.56
  A 0.54 0.54 0.0 0 0 1298.96 735.02
  L 1275.29 734.95
  A 0.54 0.54 0.0 0 1 1274.75 734.41
  L 1274.75 655.54
  A 0.54 0.54 0.0 0 0 1274.21 655.00
  L 1266.29 655.00
  A 0.54 0.54 0.0 0 0 1265.75 655.54
  L 1265.75 741.46
  A 0.54 0.54 0.0 0 0 1266.29 742.00
  L 1298.96 742.00
  A 0.54 0.54 0.0 0 0 1299.50 741.46
  L 1299.50 735.56"
/>
<path stroke="#83d6f4" vector-effect="non-scaling-stroke" d="
  M 1600.75 655.28
  A 0.27 0.27 0.0 0 0 1600.48 655.01
  L 1592.02 655.01
  A 0.27 0.27 0.0 0 0 1591.75 655.28
  L 1591.75 741.72
  A 0.27 0.27 0.0 0 0 1592.02 741.99
  L 1600.48 741.99
  A 0.27 0.27 0.0 0 0 1600.75 741.72
  L 1600.75 655.28"
/>
<path stroke="#83d6f4" vector-effect="non-scaling-stroke" d="
  M 1680.10 692.72
  A 0.60 0.60 0.0 0 1 1679.50 692.12
  L 1679.50 662.60
  A 0.60 0.60 0.0 0 1 1680.10 662.00
  L 1705.40 662.00
  A 0.60 0.60 0.0 0 0 1706.00 661.40
  L 1706.00 655.60
  A 0.60 0.60 0.0 0 0 1705.40 655.00
  L 1671.35 655.00
  A 0.60 0.60 0.0 0 0 1670.75 655.60
  L 1670.75 741.40
  A 0.60 0.60 0.0 0 0 1671.35 742.00
  L 1706.65 742.00
  A 0.60 0.60 0.0 0 0 1707.25 741.40
  L 1707.25 735.68
  A 0.60 0.60 0.0 0 0 1706.66 735.08
  L 1680.09 734.75
  A 0.60 0.60 0.0 0 1 1679.50 734.15
  L 1679.50 700.60
  A 0.60 0.60 0.0 0 1 1680.10 700.00
  L 1703.90 700.00
  A 0.60 0.60 0.0 0 0 1704.50 699.40
  L 1704.50 693.42
  A 0.60 0.60 0.0 0 0 1703.90 692.82
  L 1680.10 692.72"
/>
<path stroke="#80969e" vector-effect="non-scaling-stroke" d="
  M 705.12 551.70
  C 720.51 592.16 781.68 591.84 797.41 551.81
  C 802.93 537.75 802.84 520.11 796.68 506.31
  C 788.70 488.43 772.20 479.00 752.98 478.18
  C 712.19 476.45 691.75 516.55 705.12 551.70"
/>
<path stroke="#80969e" vector-effect="non-scaling-stroke" d="
  M 608.14 546.09
  C 619.18 509.52 595.71 483.69 559.82 482.29
  Q 547.21 481.80 534.67 482.04
  A 0.43 0.43 0.0 0 0 534.25 482.47
  L 534.25 577.26
  A 0.59 0.59 0.0 0 0 534.82 577.85
  C 562.99 578.97 598.38 578.43 608.14 546.09"
/>
<path stroke="#80969e" vector-effect="non-scaling-stroke" d="
  M 1381.27 546.61
  A 0.31 0.31 0.0 0 0 1381.56 547.04
  L 1419.82 546.97
  A 0.31 0.31 0.0 0 0 1420.11 546.55
  L 1400.89 497.84
  A 0.31 0.31 0.0 0 0 1400.31 497.84
  L 1381.27 546.61"
/>
<path stroke="#80abbc" vector-effect="non-scaling-stroke" d="
  M 1775.56 489.44
  C 1767.53 483.56 1754.79 485.14 1745.24 485.29
  A 0.50 0.49 -90.0 0 0 1744.75 485.79
  L 1744.75 522.68
  A 0.49 0.49 0.0 0 0 1745.22 523.17
  C 1753.33 523.57 1766.87 524.31 1773.53 520.32
  C 1783.33 514.44 1785.03 496.36 1775.56 489.44"
/>
<path stroke="#83d6f4" vector-effect="non-scaling-stroke" d="
  M 1161.44 733.56
  Q 1168.38 738.75 1175.04 735.91
  C 1194.93 727.44 1195.17 666.25 1173.02 660.50
  Q 1167.55 659.08 1162.77 662.32
  C 1146.39 673.41 1146.40 722.31 1161.44 733.56"
/>
<path stroke="#83d6f4" vector-effect="non-scaling-stroke" d="
  M 1372.44 733.56
  C 1379.58 739.49 1388.90 736.74 1393.62 729.33
  C 1403.23 714.23 1403.87 679.00 1391.42 665.18
  C 1386.46 659.67 1378.91 658.46 1372.95 662.90
  C 1357.13 674.67 1357.89 721.48 1372.44 733.56"
/>
</g>
<path fill="#ffffff" d="
  M 0.00 0.00
  L 2013.00 0.00
  L 2013.00 1041.00
  L 0.00 1041.00
  L 0.00 0.00
  Z
  M 179.46 330.25
  Q 177.99 329.91 176.93 330.92
  Q 133.06 372.72 18.55 481.43
  A 1.16 1.15 68.6 0 0 18.19 482.27
  Q 18.19 482.96 18.50 483.54
  L 18.29 567.75
  L 18.29 660.50
  Q 18.29 683.13 18.17 705.85
  Q 18.15 709.94 19.17 713.59
  C 41.32 792.64 108.56 839.14 189.51 839.46
  Q 211.59 839.54 233.71 839.49
  A 1.26 1.24 23.0 0 0 234.57 839.15
  Q 236.72 837.14 238.72 834.97
  C 280.64 789.32 318.88 739.24 349.57 685.32
  C 363.67 660.54 376.82 633.21 384.75 605.77
  C 391.92 583.54 395.00 561.55 395.01 538.24
  Q 395.02 518.37 394.96 498.50
  L 394.96 361.50
  L 395.07 314.97
  A 1.25 1.24 10.8 0 0 394.26 313.79
  Q 376.35 307.09 358.67 300.40
  C 355.99 299.38 354.26 300.02 351.50 300.50
  Q 213.02 324.19 180.56 329.79
  Q 180.19 329.85 179.46 330.25
  Z
  M 665.54 511.23
  C 657.13 555.53 677.74 599.38 723.52 611.47
  C 748.65 618.10 778.13 615.93 800.47 602.46
  C 832.98 582.86 844.31 544.48 836.60 508.68
  C 826.43 461.42 782.56 440.36 737.50 445.78
  C 700.65 450.21 672.62 473.88 665.54 511.23
  Z
  M 1024.76 544.73
  C 1030.70 588.10 1066.26 614.83 1109.01 614.98
  C 1133.98 615.07 1157.18 611.09 1178.82 599.71
  A 0.82 0.81 76.0 0 0 1179.25 598.99
  L 1179.25 515.50
  A 0.50 0.50 0.0 0 0 1178.75 515.00
  L 1116.25 515.00
  A 0.50 0.50 0.0 0 0 1115.75 515.50
  L 1115.75 547.50
  A 0.50 0.50 0.0 0 0 1116.25 548.00
  L 1144.25 548.00
  A 0.50 0.50 0.0 0 1 1144.75 548.50
  L 1144.75 573.42
  A 0.76 0.76 0.0 0 1 1144.33 574.10
  C 1113.07 589.72 1072.12 582.77 1062.69 544.20
  C 1054.59 511.06 1074.04 479.92 1109.22 478.20
  C 1124.87 477.43 1139.34 481.88 1150.29 493.22
  A 0.48 0.48 0.0 0 0 1150.99 493.21
  L 1175.71 466.29
  A 0.55 0.54 -48.0 0 0 1175.68 465.52
  Q 1161.55 452.72 1142.57 448.41
  C 1117.07 442.63 1087.42 443.23 1064.55 456.05
  C 1032.25 474.16 1019.85 508.93 1024.76 544.73
  Z
  M 1508.44 526.56
  C 1520.58 537.33 1535.78 540.97 1550.71 545.85
  Q 1561.47 549.36 1566.12 553.09
  C 1579.10 563.50 1570.63 578.05 1556.99 580.80
  Q 1532.92 585.65 1517.06 566.87
  A 0.46 0.46 0.0 0 0 1516.37 566.86
  L 1491.48 594.26
  A 0.44 0.43 -47.4 0 0 1491.50 594.87
  C 1510.41 612.50 1534.51 617.33 1559.99 613.97
  C 1592.72 609.65 1613.75 584.40 1607.32 550.78
  C 1602.36 524.86 1575.67 519.38 1554.84 512.81
  C 1546.79 510.27 1534.59 506.01 1533.86 496.14
  C 1533.23 487.63 1539.60 481.75 1547.50 479.75
  Q 1568.27 474.48 1583.47 488.40
  A 0.51 0.50 42.2 0 0 1584.19 488.37
  L 1607.78 462.55
  A 0.81 0.80 41.3 0 0 1607.70 461.40
  C 1581.40 438.88 1529.23 437.99 1506.72 466.85
  C 1494.01 483.16 1491.16 511.24 1508.44 526.56
  Z
  M 644.93 504.58
  C 633.88 464.52 594.67 449.04 556.25 449.01
  Q 527.43 448.99 498.70 449.01
  A 0.45 0.45 0.0 0 0 498.25 449.46
  L 498.25 610.46
  A 0.49 0.49 0.0 0 0 498.74 610.95
  Q 525.99 611.06 553.23 610.97
  Q 564.93 610.93 570.61 610.29
  C 602.22 606.71 632.92 589.26 643.77 557.81
  C 649.42 541.43 649.48 521.08 644.93 504.58
  Z
  M 862.41 549.18
  C 862.59 591.11 890.30 614.74 930.72 615.10
  C 970.90 615.47 999.19 590.70 999.22 549.24
  Q 999.26 499.40 999.23 449.52
  A 0.52 0.51 90.0 0 0 998.72 449.00
  L 963.75 449.00
  A 0.52 0.52 0.0 0 0 963.23 449.52
  Q 963.29 495.89 963.22 542.26
  Q 963.20 553.06 961.75 558.20
  C 953.11 588.91 910.26 589.92 900.39 559.51
  Q 898.29 553.02 898.28 546.00
  Q 898.25 497.77 898.24 449.52
  A 0.52 0.52 0.0 0 0 897.72 449.00
  L 862.76 449.00
  A 0.49 0.49 0.0 0 0 862.27 449.49
  Q 862.19 499.34 862.41 549.18
  Z
  M 1313.75 578.57
  A 0.57 0.57 0.0 0 0 1313.18 578.00
  L 1248.32 578.00
  A 0.57 0.57 0.0 0 1 1247.75 577.43
  L 1247.75 449.57
  A 0.57 0.57 0.0 0 0 1247.18 449.00
  L 1212.32 449.00
  A 0.57 0.57 0.0 0 0 1211.75 449.57
  L 1211.75 610.43
  A 0.57 0.57 0.0 0 0 1212.32 611.00
  L 1313.18 611.00
  A 0.57 0.57 0.0 0 0 1313.75 610.43
  L 1313.75 578.57
  Z
  M 1369.69 577.24
  A 0.38 0.38 0.0 0 1 1370.05 577.00
  L 1432.24 577.00
  A 0.38 0.38 0.0 0 1 1432.59 577.24
  L 1446.35 610.76
  A 0.38 0.38 0.0 0 0 1446.70 611.00
  L 1486.50 611.00
  A 0.38 0.38 0.0 0 0 1486.85 610.47
  L 1416.65 449.22
  A 0.38 0.38 0.0 0 0 1416.30 448.99
  L 1386.93 449.02
  A 0.38 0.38 0.0 0 0 1386.58 449.25
  L 1316.86 610.47
  A 0.38 0.38 0.0 0 0 1317.21 611.00
  L 1356.08 611.00
  A 0.38 0.38 0.0 0 0 1356.44 610.76
  L 1369.69 577.24
  Z
  M 1841.26 521.75
  C 1837.36 568.63 1853.65 611.75 1907.47 613.93
  C 1944.67 615.43 1973.63 597.87 1978.64 559.24
  A 0.44 0.43 -86.5 0 0 1978.21 558.75
  L 1936.52 558.75
  A 0.61 0.61 0.0 0 0 1935.93 559.22
  C 1933.02 572.18 1927.35 581.91 1912.60 582.08
  C 1894.14 582.29 1888.25 563.93 1886.75 549.00
  C 1884.79 529.38 1883.05 479.79 1915.34 483.33
  C 1929.09 484.84 1932.44 493.18 1935.28 505.20
  A 0.73 0.71 -6.5 0 0 1935.99 505.75
  L 1977.67 505.75
  A 0.22 0.22 0.0 0 0 1977.89 505.51
  C 1976.31 475.25 1955.75 456.23 1926.75 452.23
  C 1877.99 445.49 1845.29 473.29 1841.26 521.75
  Z
  M 1745.25 554.56
  Q 1757.10 554.51 1768.93 554.29
  C 1793.73 553.83 1818.30 542.47 1823.93 516.19
  C 1832.65 475.48 1802.44 454.14 1765.75 454.06
  Q 1733.93 453.99 1702.20 454.01
  A 0.45 0.45 0.0 0 0 1701.75 454.46
  L 1701.75 610.50
  A 0.50 0.50 0.0 0 0 1702.25 611.00
  L 1744.25 611.00
  A 0.50 0.50 0.0 0 0 1744.75 610.50
  L 1744.75 555.06
  A 0.50 0.50 0.0 0 1 1745.25 554.56
  Z
  M 796.12 723.21
  C 801.42 738.80 815.52 748.49 832.10 742.09
  Q 838.25 739.71 842.59 732.53
  A 0.76 0.75 37.9 0 0 842.47 731.60
  L 837.77 726.89
  A 0.49 0.49 0.0 0 0 837.01 726.98
  C 830.19 737.74 818.75 740.96 809.82 730.32
  C 798.28 716.57 797.06 672.70 814.48 662.33
  C 822.54 657.53 831.17 661.02 836.51 668.14
  A 0.60 0.60 0.0 0 0 837.42 668.21
  L 841.82 663.79
  A 1.61 1.61 0.0 0 0 841.92 661.64
  Q 836.16 654.68 827.24 653.30
  C 807.75 650.27 797.01 665.31 793.61 682.31
  Q 789.39 703.42 796.12 723.21
  Z
  M 1154.41 738.09
  C 1160.71 744.03 1170.47 745.60 1178.34 742.72
  C 1205.29 732.85 1204.94 672.14 1183.78 657.21
  C 1176.75 652.24 1167.26 651.54 1159.54 655.25
  C 1148.36 660.62 1143.46 674.13 1142.03 686.02
  C 1139.90 703.73 1140.95 725.41 1154.41 738.09
  Z
  M 1365.44 738.06
  Q 1374.89 746.53 1386.70 743.50
  C 1411.95 737.02 1412.18 697.42 1407.57 678.35
  C 1404.21 664.48 1394.86 651.58 1378.87 652.97
  C 1368.90 653.84 1360.18 661.47 1356.73 670.80
  C 1349.62 689.98 1349.23 723.54 1365.44 738.06
  Z
  M 1513.47 664.79
  C 1514.66 665.71 1515.62 667.27 1516.80 668.38
  A 0.56 0.56 0.0 0 0 1517.59 668.35
  L 1521.92 663.71
  A 1.40 1.38 48.6 0 0 1522.02 661.95
  Q 1517.46 655.66 1509.50 653.81
  C 1489.05 649.06 1477.26 664.18 1473.59 682.16
  C 1469.35 702.93 1471.80 741.69 1501.01 743.94
  Q 1513.81 744.92 1523.38 737.41
  A 0.97 0.94 -19.5 0 0 1523.75 736.66
  L 1523.75 695.50
  A 0.50 0.50 0.0 0 0 1523.25 695.00
  L 1503.38 695.00
  A 0.63 0.63 0.0 0 0 1502.75 695.63
  L 1502.75 701.34
  A 0.60 0.60 0.0 0 0 1503.34 701.94
  L 1514.59 702.15
  A 0.69 0.68 -89.6 0 1 1515.26 702.84
  L 1515.22 731.33
  Q 1515.22 733.10 1513.70 734.01
  Q 1508.61 737.07 1502.73 736.79
  C 1467.44 735.11 1478.42 637.63 1513.47 664.79
  Z
  M 1777.44 695.56
  C 1783.30 700.38 1791.85 703.70 1796.46 708.03
  C 1802.49 713.71 1804.71 724.68 1798.85 731.80
  C 1791.59 740.63 1779.14 736.56 1772.92 728.80
  A 0.51 0.50 -44.0 0 0 1772.14 728.79
  L 1767.43 734.21
  A 0.65 0.65 0.0 0 0 1767.44 735.08
  Q 1773.94 741.98 1782.71 743.64
  C 1811.32 749.04 1820.56 712.26 1799.23 698.24
  C 1787.59 690.59 1773.14 686.47 1779.69 668.97
  C 1783.95 657.58 1798.08 657.83 1804.82 666.39
  A 0.48 0.48 0.0 0 0 1805.56 666.41
  L 1810.32 661.00
  A 0.62 0.61 47.0 0 0 1810.34 660.21
  C 1803.13 651.06 1786.47 650.92 1777.92 657.58
  C 1766.92 666.16 1766.87 686.87 1777.44 695.56
  Z
  M 592.00 661.56
  A 0.44 0.44 0.0 0 0 592.44 662.00
  L 608.06 662.00
  A 0.44 0.44 0.0 0 1 608.50 662.44
  L 608.50 741.56
  A 0.44 0.44 0.0 0 0 608.94 742.00
  L 616.81 742.00
  A 0.44 0.44 0.0 0 0 617.25 741.56
  L 617.25 662.44
  A 0.44 0.44 0.0 0 1 617.69 662.00
  L 633.81 662.00
  A 0.44 0.44 0.0 0 0 634.25 661.56
  L 634.25 655.44
  A 0.44 0.44 0.0 0 0 633.81 655.00
  L 592.44 655.00
  A 0.44 0.44 0.0 0 0 592.00 655.44
  L 592.00 661.56
  Z
  M 704.10 692.72
  A 0.60 0.60 0.0 0 1 703.50 692.12
  L 703.50 662.60
  A 0.60 0.60 0.0 0 1 704.10 662.00
  L 729.40 662.00
  A 0.60 0.60 0.0 0 0 730.00 661.40
  L 730.00 655.60
  A 0.60 0.60 0.0 0 0 729.40 655.00
  L 695.35 655.00
  A 0.60 0.60 0.0 0 0 694.75 655.60
  L 694.75 741.40
  A 0.60 0.60 0.0 0 0 695.35 742.00
  L 730.65 742.00
  A 0.60 0.60 0.0 0 0 731.25 741.40
  L 731.25 735.68
  A 0.60 0.60 0.0 0 0 730.66 735.08
  L 704.09 734.75
  A 0.60 0.60 0.0 0 1 703.50 734.15
  L 703.50 700.60
  A 0.60 0.60 0.0 0 1 704.10 700.00
  L 727.90 700.00
  A 0.60 0.60 0.0 0 0 728.50 699.40
  L 728.50 693.42
  A 0.60 0.60 0.0 0 0 727.90 692.82
  L 704.10 692.72
  Z
  M 913.75 692.19
  L 913.75 655.50
  A 0.51 0.50 90.0 0 0 913.25 654.99
  L 905.15 655.01
  A 0.40 0.40 0.0 0 0 904.75 655.41
  L 904.75 741.37
  A 0.63 0.63 0.0 0 0 905.38 742.00
  L 913.13 742.00
  A 0.63 0.62 90.0 0 0 913.75 741.37
  L 913.75 700.56
  A 0.57 0.57 0.0 0 1 914.32 699.99
  L 946.14 700.02
  A 0.62 0.61 -90.0 0 1 946.75 700.64
  L 946.75 741.37
  A 0.63 0.63 0.0 0 0 947.38 742.00
  L 955.12 742.00
  A 0.63 0.63 0.0 0 0 955.75 741.37
  L 955.75 655.61
  A 0.64 0.63 -0.0 0 0 955.11 654.98
  L 947.32 655.04
  A 0.58 0.58 0.0 0 0 946.75 655.62
  L 946.75 692.25
  A 0.66 0.65 2.8 0 1 946.03 692.90
  C 937.32 692.12 928.07 693.31 914.25 692.71
  A 0.52 0.52 0.0 0 1 913.75 692.19
  Z
  M 1034.41 670.72
  A 0.18 0.18 0.0 0 1 1034.62 670.82
  L 1064.47 741.90
  A 0.18 0.18 0.0 0 0 1064.64 742.01
  L 1075.07 741.99
  A 0.18 0.18 0.0 0 0 1075.25 741.81
  L 1075.25 655.18
  A 0.18 0.18 0.0 0 0 1075.07 655.00
  L 1067.18 655.00
  A 0.18 0.18 0.0 0 0 1067.00 655.18
  L 1066.99 726.37
  A 0.18 0.18 0.0 0 1 1066.64 726.44
  L 1036.86 655.10
  A 0.18 0.18 0.0 0 0 1036.69 654.99
  L 1025.93 655.01
  A 0.18 0.18 0.0 0 0 1025.75 655.19
  L 1025.75 741.82
  A 0.18 0.18 0.0 0 0 1025.93 742.00
  L 1033.82 742.00
  A 0.18 0.18 0.0 0 0 1034.00 741.82
  L 1034.00 670.97
  A 0.18 0.18 0.0 0 1 1034.13 670.79
  L 1034.41 670.72
  Z
  M 1299.50 735.56
  A 0.54 0.54 0.0 0 0 1298.96 735.02
  L 1275.29 734.95
  A 0.54 0.54 0.0 0 1 1274.75 734.41
  L 1274.75 655.54
  A 0.54 0.54 0.0 0 0 1274.21 655.00
  L 1266.29 655.00
  A 0.54 0.54 0.0 0 0 1265.75 655.54
  L 1265.75 741.46
  A 0.54 0.54 0.0 0 0 1266.29 742.00
  L 1298.96 742.00
  A 0.54 0.54 0.0 0 0 1299.50 741.46
  L 1299.50 735.56
  Z
  M 1600.75 655.28
  A 0.27 0.27 0.0 0 0 1600.48 655.01
  L 1592.02 655.01
  A 0.27 0.27 0.0 0 0 1591.75 655.28
  L 1591.75 741.72
  A 0.27 0.27 0.0 0 0 1592.02 741.99
  L 1600.48 741.99
  A 0.27 0.27 0.0 0 0 1600.75 741.72
  L 1600.75 655.28
  Z
  M 1680.10 692.72
  A 0.60 0.60 0.0 0 1 1679.50 692.12
  L 1679.50 662.60
  A 0.60 0.60 0.0 0 1 1680.10 662.00
  L 1705.40 662.00
  A 0.60 0.60 0.0 0 0 1706.00 661.40
  L 1706.00 655.60
  A 0.60 0.60 0.0 0 0 1705.40 655.00
  L 1671.35 655.00
  A 0.60 0.60 0.0 0 0 1670.75 655.60
  L 1670.75 741.40
  A 0.60 0.60 0.0 0 0 1671.35 742.00
  L 1706.65 742.00
  A 0.60 0.60 0.0 0 0 1707.25 741.40
  L 1707.25 735.68
  A 0.60 0.60 0.0 0 0 1706.66 735.08
  L 1680.09 734.75
  A 0.60 0.60 0.0 0 1 1679.50 734.15
  L 1679.50 700.60
  A 0.60 0.60 0.0 0 1 1680.10 700.00
  L 1703.90 700.00
  A 0.60 0.60 0.0 0 0 1704.50 699.40
  L 1704.50 693.42
  A 0.60 0.60 0.0 0 0 1703.90 692.82
  L 1680.10 692.72
  Z"
/>
<path fill="#06ace8" d="
  M 394.96 361.50
  L 392.57 365.38
  A 1.51 1.46 -33.1 0 0 392.36 366.30
  C 392.67 370.05 393.47 388.91 392.17 391.27
  Q 391.94 391.67 391.75 391.25
  L 391.47 390.67
  Q 391.15 389.96 390.72 390.61
  L 389.13 392.99
  A 0.70 0.70 0.0 0 1 388.56 393.31
  Q 384.02 393.46 381.65 394.66
  C 379.64 395.67 378.73 395.93 376.76 395.97
  A 0.50 0.50 0.0 0 1 376.25 395.47
  L 376.26 393.57
  A 0.72 0.72 0.0 0 0 375.59 392.85
  L 372.21 392.61
  A 0.92 0.92 0.0 0 1 371.40 391.99
  L 369.04 385.50
  L 368.96 362.50
  L 368.99 352.71
  A 0.45 0.44 85.1 0 0 368.47 352.27
  L 233.25 374.79
  L 230.40 374.91
  A 1.34 1.30 -67.9 0 0 229.52 375.30
  Q 223.10 381.71 212.67 390.18
  Q 211.66 391.00 206.85 395.61
  A 1.06 1.04 25.6 0 1 206.01 395.90
  Q 204.39 395.73 202.43 396.67
  C 194.68 400.38 183.69 405.71 173.84 408.06
  Q 166.08 409.91 158.43 412.13
  Q 156.40 412.73 153.35 412.52
  A 1.56 1.54 30.1 0 0 152.38 412.77
  Q 150.63 413.91 149.61 415.65
  A 0.84 0.82 19.1 0 1 148.76 416.05
  Q 146.82 415.73 145.36 416.90
  Q 143.49 418.40 144.61 416.28
  Q 145.64 414.35 147.20 412.81
  Q 147.73 412.28 147.00 412.48
  Q 146.60 412.58 146.27 412.90
  Q 146.05 413.11 146.08 412.81
  Q 146.11 412.50 145.96 412.25
  L 208.90 352.38
  A 0.50 0.50 0.0 0 0 208.84 351.61
  L 179.61 331.42
  A 0.76 0.75 -66.5 0 1 179.30 330.62
  Q 179.35 330.41 179.46 330.25
  Q 180.19 329.85 180.56 329.79
  Q 213.02 324.19 351.50 300.50
  C 354.26 300.02 355.99 299.38 358.67 300.40
  Q 376.35 307.09 394.26 313.79
  A 1.25 1.24 10.8 0 1 395.07 314.97
  L 394.96 361.50
  Z"
/>
<path fill="#015778" d="
  M 179.46 330.25
  Q 179.35 330.41 179.30 330.62
  A 0.76 0.75 -66.5 0 0 179.61 331.42
  L 208.84 351.61
  A 0.50 0.50 0.0 0 1 208.90 352.38
  L 145.96 412.25
  L 47.68 505.70
  A 0.82 0.81 -46.9 0 1 46.59 505.74
  L 20.17 483.80
  A 1.40 1.37 62.3 0 0 19.22 483.49
  L 18.50 483.54
  Q 18.19 482.96 18.19 482.27
  A 1.16 1.15 68.6 0 1 18.55 481.43
  Q 133.06 372.72 176.93 330.92
  Q 177.99 329.91 179.46 330.25
  Z"
/>
<path fill="#cceffd" d="
  M 368.96 362.50
  L 368.75 362.11
  Q 368.39 361.46 368.35 362.20
  L 368.24 364.25
  Q 368.20 364.83 368.09 364.16
  C 367.86 362.69 366.36 362.77 365.39 363.51
  Q 360.16 367.51 354.96 371.56
  Q 353.37 372.80 351.70 373.91
  A 0.97 0.96 -16.1 0 0 351.26 374.70
  L 351.25 375.20
  A 0.31 0.31 0.0 0 1 350.81 375.48
  C 350.39 375.29 349.92 375.20 349.50 375.47
  C 341.29 380.84 332.59 385.80 324.57 390.99
  C 314.29 397.65 303.22 405.02 292.03 409.99
  Q 289.91 410.93 287.67 412.41
  C 271.59 423.02 253.59 434.22 233.90 444.72
  A 1.26 1.17 -0.2 0 0 233.43 445.16
  Q 233.15 445.63 232.64 445.49
  A 0.31 0.31 0.0 0 0 232.25 445.79
  L 232.25 501.03
  A 1.89 1.87 76.0 0 1 231.26 502.69
  C 225.46 505.82 220.13 513.95 213.25 522.73
  Q 208.78 528.44 199.02 537.74
  Q 198.51 538.23 199.20 538.37
  L 199.98 538.53
  A 0.35 0.34 25.8 0 1 200.18 539.09
  Q 192.69 547.99 169.81 573.81
  Q 165.57 578.59 163.69 580.13
  A 0.15 0.14 -40.6 0 1 163.49 580.12
  L 163.26 579.86
  A 0.36 0.36 0.0 0 0 162.72 579.86
  C 160.77 582.05 158.87 585.42 155.56 585.54
  A 1.45 1.42 26.5 0 0 154.78 585.79
  Q 151.88 587.81 150.98 591.13
  A 1.57 1.52 81.0 0 1 150.36 592.01
  Q 148.19 593.51 147.21 595.99
  A 1.10 1.09 -89.3 0 1 146.57 596.62
  Q 145.39 597.06 145.74 598.10
  A 0.65 0.65 0.0 0 1 145.28 598.94
  L 143.75 599.33
  A 0.50 0.50 0.0 0 0 143.37 599.80
  C 143.30 601.90 141.09 601.49 140.60 603.18
  Q 140.55 603.37 140.72 603.27
  L 140.98 603.12
  Q 141.29 602.94 141.14 603.26
  Q 140.03 605.62 138.09 607.27
  A 1.04 1.00 -20.3 0 0 137.73 608.02
  Q 137.69 610.17 135.71 611.12
  A 1.84 1.76 -85.5 0 0 134.97 611.78
  C 133.20 614.50 130.49 616.59 128.75 618.81
  C 120.20 629.78 110.13 639.50 101.31 650.30
  Q 100.13 651.74 93.61 657.70
  A 1.52 1.51 76.0 0 0 93.16 658.46
  Q 92.55 660.94 90.19 661.94
  Q 89.39 662.28 90.25 662.26
  L 90.99 662.24
  Q 92.24 662.20 91.07 662.65
  Q 89.10 663.42 87.79 665.00
  L 87.77 652.54
  L 87.79 592.25
  L 88.94 588.56
  A 0.35 0.35 0.0 0 1 89.50 588.39
  Q 91.17 589.72 92.76 588.23
  C 94.85 586.28 97.19 584.56 99.37 582.67
  Q 99.86 582.25 99.73 582.88
  L 99.67 583.20
  Q 99.55 583.80 99.99 583.38
  Q 104.00 579.51 107.17 574.92
  C 110.79 569.68 116.07 566.15 120.16 561.19
  Q 129.66 549.68 139.84 538.76
  C 143.48 534.86 145.83 529.87 149.56 525.68
  C 152.32 522.57 154.68 519.21 157.58 516.24
  C 159.96 513.79 161.52 510.10 163.79 508.03
  C 169.12 503.16 174.38 496.59 178.39 492.30
  Q 183.16 487.19 187.71 481.86
  A 0.32 0.31 -50.6 0 0 187.67 481.41
  L 187.43 481.22
  A 0.25 0.25 0.0 0 1 187.45 480.82
  C 189.42 479.54 190.79 477.69 192.46 476.18
  C 198.65 470.58 203.07 462.93 208.88 456.71
  C 213.15 452.14 216.61 446.95 221.35 442.85
  Q 223.43 441.05 224.76 438.88
  C 226.36 436.27 228.26 432.61 231.46 432.51
  A 0.53 0.53 0.0 0 0 231.97 431.98
  L 232.26 378.67
  A 1.28 1.25 -23.9 0 1 232.61 377.80
  Q 233.82 376.57 233.25 374.96
  L 233.25 374.79
  L 368.47 352.27
  A 0.45 0.44 85.1 0 1 368.99 352.71
  L 368.96 362.50
  Z"
/>
<path fill="#0192c8" d="
  M 394.96 361.50
  L 394.96 498.50
  Q 394.19 499.62 393.97 500.87
  A 0.22 0.22 0.0 0 1 393.69 501.04
  C 392.22 500.60 391.13 507.74 391.03 508.99
  Q 390.82 511.60 388.66 513.48
  A 1.39 1.38 -65.8 0 1 387.78 513.82
  Q 380.74 513.97 377.57 515.58
  Q 373.75 517.53 371.60 517.76
  A 0.75 0.75 0.0 0 0 371.02 518.17
  L 370.85 518.52
  Q 370.56 519.12 370.34 518.49
  L 370.14 517.92
  Q 370.02 517.57 369.84 517.89
  Q 369.54 518.46 369.04 518.25
  L 368.54 509.50
  Q 369.14 507.43 369.82 506.31
  Q 376.86 494.64 383.81 482.76
  A 0.51 0.50 30.8 0 0 383.63 482.08
  L 368.71 473.00
  L 368.96 462.50
  L 369.04 385.50
  L 371.40 391.99
  A 0.92 0.92 0.0 0 0 372.21 392.61
  L 375.59 392.85
  A 0.72 0.72 0.0 0 1 376.26 393.57
  L 376.25 395.47
  A 0.50 0.50 0.0 0 0 376.76 395.97
  C 378.73 395.93 379.64 395.67 381.65 394.66
  Q 384.02 393.46 388.56 393.31
  A 0.70 0.70 0.0 0 0 389.13 392.99
  L 390.72 390.61
  Q 391.15 389.96 391.47 390.67
  L 391.75 391.25
  Q 391.94 391.67 392.17 391.27
  C 393.47 388.91 392.67 370.05 392.36 366.30
  A 1.51 1.46 -33.1 0 1 392.57 365.38
  L 394.96 361.50
  Z"
/>
<path fill="#afe6fa" d="
  M 368.96 362.50
  L 369.04 385.50
  L 368.96 462.50
  L 368.10 464.03
  A 0.39 0.39 0.0 0 1 367.48 464.10
  C 365.08 461.50 361.82 460.21 359.45 458.80
  Q 356.39 456.98 353.17 455.44
  C 351.15 454.46 348.64 454.64 346.55 452.87
  Q 346.16 452.54 345.67 452.44
  C 339.47 451.16 333.03 449.78 327.94 451.73
  Q 325.70 452.58 323.36 454.82
  Q 313.79 463.94 306.60 474.98
  C 303.41 479.88 300.16 483.64 296.58 487.80
  C 292.76 492.23 288.44 499.01 283.20 503.88
  C 282.78 504.28 282.86 504.26 282.89 504.76
  A 1.11 1.10 65.5 0 1 282.58 505.60
  C 279.96 508.36 278.54 511.92 276.12 514.44
  Q 274.24 516.40 272.33 518.32
  C 271.83 518.83 271.32 520.78 270.68 521.74
  C 266.99 527.21 261.89 535.67 260.37 536.49
  Q 259.92 536.72 259.65 537.15
  Q 255.10 544.23 249.41 550.40
  A 1.79 1.73 -19.3 0 0 248.97 551.28
  Q 248.79 552.23 248.23 552.97
  Q 242.80 560.18 237.40 567.40
  Q 235.62 569.77 231.18 582.51
  Q 230.30 585.03 225.54 593.66
  C 224.47 595.61 223.05 596.91 221.77 598.75
  C 217.62 604.69 210.50 610.72 202.75 609.99
  C 187.62 608.56 174.14 602.91 163.48 618.47
  Q 162.00 620.63 160.48 622.74
  Q 159.43 624.21 158.73 625.87
  C 156.23 631.76 153.86 636.44 156.20 642.80
  Q 158.15 648.13 161.56 651.82
  L 160.94 653.68
  A 0.65 0.64 25.1 0 0 161.22 654.44
  L 171.54 660.75
  Q 171.49 661.20 171.65 661.56
  A 0.38 0.38 0.0 0 1 171.43 662.07
  C 169.65 662.72 171.91 667.44 172.37 668.35
  C 176.32 676.06 174.75 684.41 168.91 690.66
  Q 154.85 705.68 141.48 721.31
  C 135.46 728.37 129.60 735.37 123.21 741.98
  C 122.49 742.73 122.45 743.41 121.41 744.08
  C 118.14 746.20 117.52 749.94 114.55 751.99
  Q 113.41 752.78 112.18 753.44
  Q 110.33 754.44 109.21 756.21
  L 106.96 759.75
  Q 93.21 743.10 89.12 722.40
  Q 87.75 715.48 87.74 702.99
  Q 87.73 684.00 87.79 665.00
  Q 89.10 663.42 91.07 662.65
  Q 92.24 662.20 90.99 662.24
  L 90.25 662.26
  Q 89.39 662.28 90.19 661.94
  Q 92.55 660.94 93.16 658.46
  A 1.52 1.51 76.0 0 1 93.61 657.70
  Q 100.13 651.74 101.31 650.30
  C 110.13 639.50 120.20 629.78 128.75 618.81
  C 130.49 616.59 133.20 614.50 134.97 611.78
  A 1.84 1.76 -85.5 0 1 135.71 611.12
  Q 137.69 610.17 137.73 608.02
  A 1.04 1.00 -20.3 0 1 138.09 607.27
  Q 140.03 605.62 141.14 603.26
  Q 141.29 602.94 140.98 603.12
  L 140.72 603.27
  Q 140.55 603.37 140.60 603.18
  C 141.09 601.49 143.30 601.90 143.37 599.80
  A 0.50 0.50 0.0 0 1 143.75 599.33
  L 145.28 598.94
  A 0.65 0.65 0.0 0 0 145.74 598.10
  Q 145.39 597.06 146.57 596.62
  A 1.10 1.09 -89.3 0 0 147.21 595.99
  Q 148.19 593.51 150.36 592.01
  A 1.57 1.52 81.0 0 0 150.98 591.13
  Q 151.88 587.81 154.78 585.79
  A 1.45 1.42 26.5 0 1 155.56 585.54
  C 158.87 585.42 160.77 582.05 162.72 579.86
  A 0.36 0.36 0.0 0 1 163.26 579.86
  L 163.49 580.12
  A 0.15 0.14 -40.6 0 0 163.69 580.13
  Q 165.57 578.59 169.81 573.81
  Q 192.69 547.99 200.18 539.09
  A 0.35 0.34 25.8 0 0 199.98 538.53
  L 199.20 538.37
  Q 198.51 538.23 199.02 537.74
  Q 208.78 528.44 213.25 522.73
  C 220.13 513.95 225.46 505.82 231.26 502.69
  A 1.89 1.87 76.0 0 0 232.25 501.03
  L 232.25 445.79
  A 0.31 0.31 0.0 0 1 232.64 445.49
  Q 233.15 445.63 233.43 445.16
  A 1.26 1.17 -0.2 0 1 233.90 444.72
  C 253.59 434.22 271.59 423.02 287.67 412.41
  Q 289.91 410.93 292.03 409.99
  C 303.22 405.02 314.29 397.65 324.57 390.99
  C 332.59 385.80 341.29 380.84 349.50 375.47
  C 349.92 375.20 350.39 375.29 350.81 375.48
  A 0.31 0.31 0.0 0 0 351.25 375.20
  L 351.26 374.70
  A 0.97 0.96 -16.1 0 1 351.70 373.91
  Q 353.37 372.80 354.96 371.56
  Q 360.16 367.51 365.39 363.51
  C 366.36 362.77 367.86 362.69 368.09 364.16
  Q 368.20 364.83 368.24 364.25
  L 368.35 362.20
  Q 368.39 361.46 368.75 362.11
  L 368.96 362.50
  Z"
/>
<path fill="#0192c8" d="
  M 233.25 374.79
  L 233.25 374.96
  Q 231.72 374.98 230.45 376.20
  Q 159.35 444.48 88.16 512.77
  A 1.38 1.35 68.7 0 0 87.74 513.76
  L 87.71 541.50
  L 87.25 550.72
  A 1.46 1.46 0.0 0 1 86.94 551.56
  Q 86.71 551.84 86.66 552.23
  Q 86.63 552.51 86.50 552.26
  L 86.35 551.97
  A 0.39 0.38 51.5 0 0 85.71 551.89
  C 79.59 559.06 66.30 560.54 57.36 562.80
  C 54.72 563.47 50.38 563.60 46.90 565.54
  A 1.78 1.74 -58.1 0 1 45.96 565.77
  Q 41.75 565.64 37.75 566.96
  Q 36.14 567.50 27.89 567.78
  C 26.04 567.84 23.77 567.17 21.37 567.07
  Q 18.42 566.95 18.75 563.55
  Q 18.78 563.24 18.73 563.55
  Q 18.40 565.60 18.29 567.75
  L 18.50 483.54
  L 19.22 483.49
  A 1.40 1.37 62.3 0 1 20.17 483.80
  L 46.59 505.74
  A 0.82 0.81 -46.9 0 0 47.68 505.70
  L 145.96 412.25
  Q 146.11 412.50 146.08 412.81
  Q 146.05 413.11 146.27 412.90
  Q 146.60 412.58 147.00 412.48
  Q 147.73 412.28 147.20 412.81
  Q 145.64 414.35 144.61 416.28
  Q 143.49 418.40 145.36 416.90
  Q 146.82 415.73 148.76 416.05
  A 0.84 0.82 19.1 0 0 149.61 415.65
  Q 150.63 413.91 152.38 412.77
  A 1.56 1.54 30.1 0 1 153.35 412.52
  Q 156.40 412.73 158.43 412.13
  Q 166.08 409.91 173.84 408.06
  C 183.69 405.71 194.68 400.38 202.43 396.67
  Q 204.39 395.73 206.01 395.90
  A 1.06 1.04 25.6 0 0 206.85 395.61
  Q 211.66 391.00 212.67 390.18
  Q 223.10 381.71 229.52 375.30
  A 1.34 1.30 -67.9 0 1 230.40 374.91
  L 233.25 374.79
  Z"
/>
<path fill="#ffffff" d="
  M 233.25 374.96
  Q 233.82 376.57 232.61 377.80
  A 1.28 1.25 -23.9 0 0 232.26 378.67
  L 231.97 431.98
  A 0.53 0.53 0.0 0 1 231.46 432.51
  C 228.26 432.61 226.36 436.27 224.76 438.88
  Q 223.43 441.05 221.35 442.85
  C 216.61 446.95 213.15 452.14 208.88 456.71
  C 203.07 462.93 198.65 470.58 192.46 476.18
  C 190.79 477.69 189.42 479.54 187.45 480.82
  A 0.25 0.25 0.0 0 0 187.43 481.22
  L 187.67 481.41
  A 0.32 0.31 -50.6 0 1 187.71 481.86
  Q 183.16 487.19 178.39 492.30
  C 174.38 496.59 169.12 503.16 163.79 508.03
  C 161.52 510.10 159.96 513.79 157.58 516.24
  C 154.68 519.21 152.32 522.57 149.56 525.68
  C 145.83 529.87 143.48 534.86 139.84 538.76
  Q 129.66 549.68 120.16 561.19
  C 116.07 566.15 110.79 569.68 107.17 574.92
  Q 104.00 579.51 99.99 583.38
  Q 99.55 583.80 99.67 583.20
  L 99.73 582.88
  Q 99.86 582.25 99.37 582.67
  C 97.19 584.56 94.85 586.28 92.76 588.23
  Q 91.17 589.72 89.50 588.39
  A 0.35 0.35 0.0 0 0 88.94 588.56
  L 87.79 592.25
  L 87.71 541.50
  L 87.74 513.76
  A 1.38 1.35 68.7 0 1 88.16 512.77
  Q 159.35 444.48 230.45 376.20
  Q 231.72 374.98 233.25 374.96
  Z"
/>
<path fill="#012c3c" d="
  M 723.52 611.47
  C 677.74 599.38 657.13 555.53 665.54 511.23
  C 672.62 473.88 700.65 450.21 737.50 445.78
  C 782.56 440.36 826.43 461.42 836.60 508.68
  C 844.31 544.48 832.98 582.86 800.47 602.46
  C 778.13 615.93 748.65 618.10 723.52 611.47
  Z
  M 705.12 551.70
  C 720.51 592.16 781.68 591.84 797.41 551.81
  C 802.93 537.75 802.84 520.11 796.68 506.31
  C 788.70 488.43 772.20 479.00 752.98 478.18
  C 712.19 476.45 691.75 516.55 705.12 551.70
  Z"
/>
<path fill="#012c3c" d="
  M 1109.01 614.98
  C 1066.26 614.83 1030.70 588.10 1024.76 544.73
  C 1019.85 508.93 1032.25 474.16 1064.55 456.05
  C 1087.42 443.23 1117.07 442.63 1142.57 448.41
  Q 1161.55 452.72 1175.68 465.52
  A 0.55 0.54 -48.0 0 1 1175.71 466.29
  L 1150.99 493.21
  A 0.48 0.48 0.0 0 1 1150.29 493.22
  C 1139.34 481.88 1124.87 477.43 1109.22 478.20
  C 1074.04 479.92 1054.59 511.06 1062.69 544.20
  C 1072.12 582.77 1113.07 589.72 1144.33 574.10
  A 0.76 0.76 0.0 0 0 1144.75 573.42
  L 1144.75 548.50
  A 0.50 0.50 0.0 0 0 1144.25 548.00
  L 1116.25 548.00
  A 0.50 0.50 0.0 0 1 1115.75 547.50
  L 1115.75 515.50
  A 0.50 0.50 0.0 0 1 1116.25 515.00
  L 1178.75 515.00
  A 0.50 0.50 0.0 0 1 1179.25 515.50
  L 1179.25 598.99
  A 0.82 0.81 76.0 0 1 1178.82 599.71
  C 1157.18 611.09 1133.98 615.07 1109.01 614.98
  Z"
/>
<path fill="#012c3c" d="
  M 1508.44 526.56
  C 1491.16 511.24 1494.01 483.16 1506.72 466.85
  C 1529.23 437.99 1581.40 438.88 1607.70 461.40
  A 0.81 0.80 41.3 0 1 1607.78 462.55
  L 1584.19 488.37
  A 0.51 0.50 42.2 0 1 1583.47 488.40
  Q 1568.27 474.48 1547.50 479.75
  C 1539.60 481.75 1533.23 487.63 1533.86 496.14
  C 1534.59 506.01 1546.79 510.27 1554.84 512.81
  C 1575.67 519.38 1602.36 524.86 1607.32 550.78
  C 1613.75 584.40 1592.72 609.65 1559.99 613.97
  C 1534.51 617.33 1510.41 612.50 1491.50 594.87
  A 0.44 0.43 -47.4 0 1 1491.48 594.26
  L 1516.37 566.86
  A 0.46 0.46 0.0 0 1 1517.06 566.87
  Q 1532.92 585.65 1556.99 580.80
  C 1570.63 578.05 1579.10 563.50 1566.12 553.09
  Q 1561.47 549.36 1550.71 545.85
  C 1535.78 540.97 1520.58 537.33 1508.44 526.56
  Z"
/>
<path fill="#012c3c" d="
  M 556.25 449.01
  C 594.67 449.04 633.88 464.52 644.93 504.58
  C 649.48 521.08 649.42 541.43 643.77 557.81
  C 632.92 589.26 602.22 606.71 570.61 610.29
  Q 564.93 610.93 553.23 610.97
  Q 525.99 611.06 498.74 610.95
  A 0.49 0.49 0.0 0 1 498.25 610.46
  L 498.25 449.46
  A 0.45 0.45 0.0 0 1 498.70 449.01
  Q 527.43 448.99 556.25 449.01
  Z
  M 608.14 546.09
  C 619.18 509.52 595.71 483.69 559.82 482.29
  Q 547.21 481.80 534.67 482.04
  A 0.43 0.43 0.0 0 0 534.25 482.47
  L 534.25 577.26
  A 0.59 0.59 0.0 0 0 534.82 577.85
  C 562.99 578.97 598.38 578.43 608.14 546.09
  Z"
/>
<path fill="#012c3c" d="
  M 930.72 615.10
  C 890.30 614.74 862.59 591.11 862.41 549.18
  Q 862.19 499.34 862.27 449.49
  A 0.49 0.49 0.0 0 1 862.76 449.00
  L 897.72 449.00
  A 0.52 0.52 0.0 0 1 898.24 449.52
  Q 898.25 497.77 898.28 546.00
  Q 898.29 553.02 900.39 559.51
  C 910.26 589.92 953.11 588.91 961.75 558.20
  Q 963.20 553.06 963.22 542.26
  Q 963.29 495.89 963.23 449.52
  A 0.52 0.52 0.0 0 1 963.75 449.00
  L 998.72 449.00
  A 0.52 0.51 -90.0 0 1 999.23 449.52
  Q 999.26 499.40 999.22 549.24
  C 999.19 590.70 970.90 615.47 930.72 615.10
  Z"
/>
<path fill="#012c3c" d="
  M 1313.75 578.57
  L 1313.75 610.43
  A 0.57 0.57 0.0 0 1 1313.18 611.00
  L 1212.32 611.00
  A 0.57 0.57 0.0 0 1 1211.75 610.43
  L 1211.75 449.57
  A 0.57 0.57 0.0 0 1 1212.32 449.00
  L 1247.18 449.00
  A 0.57 0.57 0.0 0 1 1247.75 449.57
  L 1247.75 577.43
  A 0.57 0.57 0.0 0 0 1248.32 578.00
  L 1313.18 578.00
  A 0.57 0.57 0.0 0 1 1313.75 578.57
  Z"
/>
<path fill="#012c3c" d="
  M 1369.69 577.24
  L 1356.44 610.76
  A 0.38 0.38 0.0 0 1 1356.08 611.00
  L 1317.21 611.00
  A 0.38 0.38 0.0 0 1 1316.86 610.47
  L 1386.58 449.25
  A 0.38 0.38 0.0 0 1 1386.93 449.02
  L 1416.30 448.99
  A 0.38 0.38 0.0 0 1 1416.65 449.22
  L 1486.85 610.47
  A 0.38 0.38 0.0 0 1 1486.50 611.00
  L 1446.70 611.00
  A 0.38 0.38 0.0 0 1 1446.35 610.76
  L 1432.59 577.24
  A 0.38 0.38 0.0 0 0 1432.24 577.00
  L 1370.05 577.00
  A 0.38 0.38 0.0 0 0 1369.69 577.24
  Z
  M 1381.27 546.61
  A 0.31 0.31 0.0 0 0 1381.56 547.04
  L 1419.82 546.97
  A 0.31 0.31 0.0 0 0 1420.11 546.55
  L 1400.89 497.84
  A 0.31 0.31 0.0 0 0 1400.31 497.84
  L 1381.27 546.61
  Z"
/>
<path fill="#48c5f4" d="
  M 368.96 462.50
  L 368.71 473.00
  L 343.26 457.86
  A 0.58 0.58 0.0 0 0 342.47 458.06
  L 308.79 514.00
  Q 308.59 512.73 307.23 512.73
  A 0.90 0.89 -74.7 0 0 306.46 513.17
  Q 305.64 514.57 304.34 515.57
  Q 303.93 515.89 303.65 516.33
  Q 302.95 517.46 301.50 517.43
  A 1.07 1.06 -69.8 0 0 300.65 517.83
  C 298.40 520.70 295.19 522.23 292.96 524.57
  Q 290.49 527.17 288.01 529.75
  Q 287.67 530.11 287.52 530.59
  C 286.91 532.61 284.84 533.57 283.89 534.65
  C 278.35 540.88 273.18 547.39 267.84 553.80
  Q 264.55 557.76 261.98 562.24
  C 261.11 563.74 259.54 565.54 258.39 567.74
  Q 255.33 573.58 249.66 580.42
  C 247.64 582.86 245.84 585.74 243.75 588.30
  C 241.08 591.57 239.68 594.89 237.72 598.46
  A 1.77 1.77 0.0 0 1 237.06 599.12
  C 235.38 600.05 232.05 607.57 231.39 608.95
  C 226.47 619.32 220.12 622.03 210.96 628.00
  L 185.46 612.88
  A 0.37 0.35 -58.8 0 0 184.97 613.01
  L 161.56 651.82
  Q 158.15 648.13 156.20 642.80
  C 153.86 636.44 156.23 631.76 158.73 625.87
  Q 159.43 624.21 160.48 622.74
  Q 162.00 620.63 163.48 618.47
  C 174.14 602.91 187.62 608.56 202.75 609.99
  C 210.50 610.72 217.62 604.69 221.77 598.75
  C 223.05 596.91 224.47 595.61 225.54 593.66
  Q 230.30 585.03 231.18 582.51
  Q 235.62 569.77 237.40 567.40
  Q 242.80 560.18 248.23 552.97
  Q 248.79 552.23 248.97 551.28
  A 1.79 1.73 -19.3 0 1 249.41 550.40
  Q 255.10 544.23 259.65 537.15
  Q 259.92 536.72 260.37 536.49
  C 261.89 535.67 266.99 527.21 270.68 521.74
  C 271.32 520.78 271.83 518.83 272.33 518.32
  Q 274.24 516.40 276.12 514.44
  C 278.54 511.92 279.96 508.36 282.58 505.60
  A 1.11 1.10 65.5 0 0 282.89 504.76
  C 282.86 504.26 282.78 504.28 283.20 503.88
  C 288.44 499.01 292.76 492.23 296.58 487.80
  C 300.16 483.64 303.41 479.88 306.60 474.98
  Q 313.79 463.94 323.36 454.82
  Q 325.70 452.58 327.94 451.73
  C 333.03 449.78 339.47 451.16 345.67 452.44
  Q 346.16 452.54 346.55 452.87
  C 348.64 454.64 351.15 454.46 353.17 455.44
  Q 356.39 456.98 359.45 458.80
  C 361.82 460.21 365.08 461.50 367.48 464.10
  A 0.39 0.39 0.0 0 0 368.10 464.03
  L 368.96 462.50
  Z"
/>
<path fill="#015778" d="
  M 1907.47 613.93
  C 1853.65 611.75 1837.36 568.63 1841.26 521.75
  C 1845.29 473.29 1877.99 445.49 1926.75 452.23
  C 1955.75 456.23 1976.31 475.25 1977.89 505.51
  A 0.22 0.22 0.0 0 1 1977.67 505.75
  L 1935.99 505.75
  A 0.73 0.71 -6.5 0 1 1935.28 505.20
  C 1932.44 493.18 1929.09 484.84 1915.34 483.33
  C 1883.05 479.79 1884.79 529.38 1886.75 549.00
  C 1888.25 563.93 1894.14 582.29 1912.60 582.08
  C 1927.35 581.91 1933.02 572.18 1935.93 559.22
  A 0.61 0.61 0.0 0 1 1936.52 558.75
  L 1978.21 558.75
  A 0.44 0.43 -86.5 0 1 1978.64 559.24
  C 1973.63 597.87 1944.67 615.43 1907.47 613.93
  Z"
/>
<path fill="#015778" d="
  M 1744.75 555.06
  L 1744.75 610.50
  A 0.50 0.50 0.0 0 1 1744.25 611.00
  L 1702.25 611.00
  A 0.50 0.50 0.0 0 1 1701.75 610.50
  L 1701.75 454.46
  A 0.45 0.45 0.0 0 1 1702.20 454.01
  Q 1733.93 453.99 1765.75 454.06
  C 1802.44 454.14 1832.65 475.48 1823.93 516.19
  C 1818.30 542.47 1793.73 553.83 1768.93 554.29
  Q 1757.10 554.51 1745.25 554.56
  A 0.50 0.50 0.0 0 0 1744.75 555.06
  Z
  M 1775.56 489.44
  C 1767.53 483.56 1754.79 485.14 1745.24 485.29
  A 0.50 0.49 -90.0 0 0 1744.75 485.79
  L 1744.75 522.68
  A 0.49 0.49 0.0 0 0 1745.22 523.17
  C 1753.33 523.57 1766.87 524.31 1773.53 520.32
  C 1783.33 514.44 1785.03 496.36 1775.56 489.44
  Z"
/>
<path fill="#ffffff" d="
  M 368.71 473.00
  L 383.63 482.08
  A 0.51 0.50 30.8 0 1 383.81 482.76
  Q 376.86 494.64 369.82 506.31
  Q 369.14 507.43 368.54 509.50
  C 368.02 510.04 367.38 510.35 366.99 511.01
  Q 308.19 608.83 249.39 706.77
  A 0.61 0.60 -59.1 0 1 248.57 706.98
  L 171.54 660.75
  L 161.22 654.44
  A 0.65 0.64 25.1 0 1 160.94 653.68
  L 161.56 651.82
  L 184.97 613.01
  A 0.37 0.35 -58.8 0 1 185.46 612.88
  L 210.96 628.00
  L 232.23 640.66
  A 0.42 0.41 30.6 0 0 232.80 640.52
  L 308.79 514.00
  L 342.47 458.06
  A 0.58 0.58 0.0 0 1 343.26 457.86
  L 368.71 473.00
  Z"
/>
<path fill="#ffffff" d="
  M 797.41 551.81
  C 781.68 591.84 720.51 592.16 705.12 551.70
  C 691.75 516.55 712.19 476.45 752.98 478.18
  C 772.20 479.00 788.70 488.43 796.68 506.31
  C 802.84 520.11 802.93 537.75 797.41 551.81
  Z"
/>
<path fill="#ffffff" d="
  M 559.82 482.29
  C 595.71 483.69 619.18 509.52 608.14 546.09
  C 598.38 578.43 562.99 578.97 534.82 577.85
  A 0.59 0.59 0.0 0 1 534.25 577.26
  L 534.25 482.47
  A 0.43 0.43 0.0 0 1 534.67 482.04
  Q 547.21 481.80 559.82 482.29
  Z"
/>
<path fill="#ffffff" d="
  M 1775.56 489.44
  C 1785.03 496.36 1783.33 514.44 1773.53 520.32
  C 1766.87 524.31 1753.33 523.57 1745.22 523.17
  A 0.49 0.49 0.0 0 1 1744.75 522.68
  L 1744.75 485.79
  A 0.50 0.49 -90.0 0 1 1745.24 485.29
  C 1754.79 485.14 1767.53 483.56 1775.56 489.44
  Z"
/>
<path fill="#ffffff" d="
  M 1381.27 546.61
  L 1400.31 497.84
  A 0.31 0.31 0.0 0 1 1400.89 497.84
  L 1420.11 546.55
  A 0.31 0.31 0.0 0 1 1419.82 546.97
  L 1381.56 547.04
  A 0.31 0.31 0.0 0 1 1381.27 546.61
  Z"
/>
<path fill="#0075a1" d="
  M 394.96 498.50
  Q 395.02 518.37 395.01 538.24
  C 395.00 561.55 391.92 583.54 384.75 605.77
  Q 382.01 608.25 377.76 610.02
  Q 364.51 615.53 357.46 618.10
  A 1.27 1.24 45.6 0 1 356.52 618.08
  Q 355.02 617.47 354.04 616.25
  Q 365.43 585.97 368.16 553.89
  C 369.07 543.16 368.84 530.10 369.04 518.25
  Q 369.54 518.46 369.84 517.89
  Q 370.02 517.57 370.14 517.92
  L 370.34 518.49
  Q 370.56 519.12 370.85 518.52
  L 371.02 518.17
  A 0.75 0.75 0.0 0 1 371.60 517.76
  Q 373.75 517.53 377.57 515.58
  Q 380.74 513.97 387.78 513.82
  A 1.39 1.38 -65.8 0 0 388.66 513.48
  Q 390.82 511.60 391.03 508.99
  C 391.13 507.74 392.22 500.60 393.69 501.04
  A 0.22 0.22 0.0 0 0 393.97 500.87
  Q 394.19 499.62 394.96 498.50
  Z"
/>
<path fill="#48c5f4" d="
  M 368.54 509.50
  L 369.04 518.25
  C 368.84 530.10 369.07 543.16 368.16 553.89
  Q 365.43 585.97 354.04 616.25
  C 332.29 676.06 295.87 733.55 254.61 781.53
  C 248.75 788.34 242.50 794.32 235.93 800.18
  Q 234.48 801.48 232.75 802.29
  C 231.37 800.89 232.16 736.55 232.10 729.04
  Q 232.09 728.35 231.85 728.99
  L 231.71 729.36
  A 0.27 0.26 23.0 0 1 231.35 729.50
  Q 228.42 728.17 227.04 731.21
  Q 226.82 731.70 226.40 732.02
  Q 223.25 734.47 223.48 738.54
  A 1.12 1.09 66.6 0 1 223.15 739.40
  Q 222.00 740.56 221.66 741.17
  Q 217.91 747.92 211.57 752.32
  C 209.63 753.67 208.18 758.71 205.52 760.97
  C 203.24 762.91 201.16 764.39 199.26 766.76
  Q 193.18 774.35 186.96 781.84
  C 183.10 786.49 179.35 790.26 176.53 795.78
  Q 175.99 796.82 175.03 797.32
  Q 174.85 797.41 175.03 797.51
  L 175.30 797.67
  A 0.19 0.19 0.0 0 1 175.30 798.00
  Q 175.18 798.07 175.00 798.04
  C 149.48 792.80 123.38 780.20 106.96 759.75
  L 109.21 756.21
  Q 110.33 754.44 112.18 753.44
  Q 113.41 752.78 114.55 751.99
  C 117.52 749.94 118.14 746.20 121.41 744.08
  C 122.45 743.41 122.49 742.73 123.21 741.98
  C 129.60 735.37 135.46 728.37 141.48 721.31
  Q 154.85 705.68 168.91 690.66
  C 174.75 684.41 176.32 676.06 172.37 668.35
  C 171.91 667.44 169.65 662.72 171.43 662.07
  A 0.38 0.38 0.0 0 0 171.65 661.56
  Q 171.49 661.20 171.54 660.75
  L 248.57 706.98
  A 0.61 0.60 -59.1 0 0 249.39 706.77
  Q 308.19 608.83 366.99 511.01
  C 367.38 510.35 368.02 510.04 368.54 509.50
  Z"
/>
<path fill="#06ace8" d="
  M 308.79 514.00
  L 232.80 640.52
  A 0.42 0.41 30.6 0 1 232.23 640.66
  L 210.96 628.00
  C 220.12 622.03 226.47 619.32 231.39 608.95
  C 232.05 607.57 235.38 600.05 237.06 599.12
  A 1.77 1.77 0.0 0 0 237.72 598.46
  C 239.68 594.89 241.08 591.57 243.75 588.30
  C 245.84 585.74 247.64 582.86 249.66 580.42
  Q 255.33 573.58 258.39 567.74
  C 259.54 565.54 261.11 563.74 261.98 562.24
  Q 264.55 557.76 267.84 553.80
  C 273.18 547.39 278.35 540.88 283.89 534.65
  C 284.84 533.57 286.91 532.61 287.52 530.59
  Q 287.67 530.11 288.01 529.75
  Q 290.49 527.17 292.96 524.57
  C 295.19 522.23 298.40 520.70 300.65 517.83
  A 1.07 1.06 -69.8 0 1 301.50 517.43
  Q 302.95 517.46 303.65 516.33
  Q 303.93 515.89 304.34 515.57
  Q 305.64 514.57 306.46 513.17
  A 0.90 0.89 -74.7 0 1 307.23 512.73
  Q 308.59 512.73 308.79 514.00
  Z"
/>
<path fill="#0075a1" d="
  M 87.71 541.50
  L 87.79 592.25
  L 87.77 652.54
  Q 84.84 655.66 80.97 657.22
  Q 79.62 657.77 73.86 658.58
  Q 68.73 659.30 64.00 661.66
  A 0.46 0.45 -10.5 0 0 63.76 662.00
  C 63.71 662.43 59.43 662.24 58.86 662.25
  C 54.28 662.30 50.88 664.88 46.11 664.91
  Q 39.58 664.95 33.28 666.70
  Q 29.47 667.75 27.72 667.88
  Q 25.15 668.08 22.56 667.83
  Q 19.86 667.58 19.27 664.93
  L 18.29 660.50
  L 18.29 567.75
  Q 18.40 565.60 18.73 563.55
  Q 18.78 563.24 18.75 563.55
  Q 18.42 566.95 21.37 567.07
  C 23.77 567.17 26.04 567.84 27.89 567.78
  Q 36.14 567.50 37.75 566.96
  Q 41.75 565.64 45.96 565.77
  A 1.78 1.74 -58.1 0 0 46.90 565.54
  C 50.38 563.60 54.72 563.47 57.36 562.80
  C 66.30 560.54 79.59 559.06 85.71 551.89
  A 0.39 0.38 51.5 0 1 86.35 551.97
  L 86.50 552.26
  Q 86.63 552.51 86.66 552.23
  Q 86.71 551.84 86.94 551.56
  A 1.46 1.46 0.0 0 0 87.25 550.72
  L 87.71 541.50
  Z"
/>
<path fill="#015778" d="
  M 384.75 605.77
  C 376.82 633.21 363.67 660.54 349.57 685.32
  C 318.88 739.24 280.64 789.32 238.72 834.97
  Q 236.72 837.14 234.57 839.15
  A 1.26 1.24 23.0 0 1 233.71 839.49
  Q 211.59 839.54 189.51 839.46
  C 108.56 839.14 41.32 792.64 19.17 713.59
  Q 18.15 709.94 18.17 705.85
  Q 18.29 683.13 18.29 660.50
  L 19.27 664.93
  Q 19.86 667.58 22.56 667.83
  Q 25.15 668.08 27.72 667.88
  Q 29.47 667.75 33.28 666.70
  Q 39.58 664.95 46.11 664.91
  C 50.88 664.88 54.28 662.30 58.86 662.25
  C 59.43 662.24 63.71 662.43 63.76 662.00
  A 0.46 0.45 -10.5 0 1 64.00 661.66
  Q 68.73 659.30 73.86 658.58
  Q 79.62 657.77 80.97 657.22
  Q 84.84 655.66 87.77 652.54
  L 87.79 665.00
  Q 87.73 684.00 87.74 702.99
  Q 87.75 715.48 89.12 722.40
  Q 93.21 743.10 106.96 759.75
  C 123.38 780.20 149.48 792.80 175.00 798.04
  Q 201.76 804.00 229.19 803.46
  Q 231.19 803.42 232.75 802.29
  Q 234.48 801.48 235.93 800.18
  C 242.50 794.32 248.75 788.34 254.61 781.53
  C 295.87 733.55 332.29 676.06 354.04 616.25
  Q 355.02 617.47 356.52 618.08
  A 1.27 1.24 45.6 0 0 357.46 618.10
  Q 364.51 615.53 377.76 610.02
  Q 382.01 608.25 384.75 605.77
  Z"
/>
<path fill="#06ace8" d="
  M 832.10 742.09
  C 815.52 748.49 801.42 738.80 796.12 723.21
  Q 789.39 703.42 793.61 682.31
  C 797.01 665.31 807.75 650.27 827.24 653.30
  Q 836.16 654.68 841.92 661.64
  A 1.61 1.61 0.0 0 1 841.82 663.79
  L 837.42 668.21
  A 0.60 0.60 0.0 0 1 836.51 668.14
  C 831.17 661.02 822.54 657.53 814.48 662.33
  C 797.06 672.70 798.28 716.57 809.82 730.32
  C 818.75 740.96 830.19 737.74 837.01 726.98
  A 0.49 0.49 0.0 0 1 837.77 726.89
  L 842.47 731.60
  A 0.76 0.75 37.9 0 1 842.59 732.53
  Q 838.25 739.71 832.10 742.09
  Z"
/>
<path fill="#06ace8" d="
  M 1154.41 738.09
  C 1140.95 725.41 1139.90 703.73 1142.03 686.02
  C 1143.46 674.13 1148.36 660.62 1159.54 655.25
  C 1167.26 651.54 1176.75 652.24 1183.78 657.21
  C 1204.94 672.14 1205.29 732.85 1178.34 742.72
  C 1170.47 745.60 1160.71 744.03 1154.41 738.09
  Z
  M 1161.44 733.56
  Q 1168.38 738.75 1175.04 735.91
  C 1194.93 727.44 1195.17 666.25 1173.02 660.50
  Q 1167.55 659.08 1162.77 662.32
  C 1146.39 673.41 1146.40 722.31 1161.44 733.56
  Z"
/>
<path fill="#06ace8" d="
  M 1365.44 738.06
  C 1349.23 723.54 1349.62 689.98 1356.73 670.80
  C 1360.18 661.47 1368.90 653.84 1378.87 652.97
  C 1394.86 651.58 1404.21 664.48 1407.57 678.35
  C 1412.18 697.42 1411.95 737.02 1386.70 743.50
  Q 1374.89 746.53 1365.44 738.06
  Z
  M 1372.44 733.56
  C 1379.58 739.49 1388.90 736.74 1393.62 729.33
  C 1403.23 714.23 1403.87 679.00 1391.42 665.18
  C 1386.46 659.67 1378.91 658.46 1372.95 662.90
  C 1357.13 674.67 1357.89 721.48 1372.44 733.56
  Z"
/>
<path fill="#06ace8" d="
  M 1513.47 664.79
  C 1478.42 637.63 1467.44 735.11 1502.73 736.79
  Q 1508.61 737.07 1513.70 734.01
  Q 1515.22 733.10 1515.22 731.33
  L 1515.26 702.84
  A 0.69 0.68 -89.6 0 0 1514.59 702.15
  L 1503.34 701.94
  A 0.60 0.60 0.0 0 1 1502.75 701.34
  L 1502.75 695.63
  A 0.63 0.63 0.0 0 1 1503.38 695.00
  L 1523.25 695.00
  A 0.50 0.50 0.0 0 1 1523.75 695.50
  L 1523.75 736.66
  A 0.97 0.94 -19.5 0 1 1523.38 737.41
  Q 1513.81 744.92 1501.01 743.94
  C 1471.80 741.69 1469.35 702.93 1473.59 682.16
  C 1477.26 664.18 1489.05 649.06 1509.50 653.81
  Q 1517.46 655.66 1522.02 661.95
  A 1.40 1.38 48.6 0 1 1521.92 663.71
  L 1517.59 668.35
  A 0.56 0.56 0.0 0 1 1516.80 668.38
  C 1515.62 667.27 1514.66 665.71 1513.47 664.79
  Z"
/>
<path fill="#06ace8" d="
  M 1777.44 695.56
  C 1766.87 686.87 1766.92 666.16 1777.92 657.58
  C 1786.47 650.92 1803.13 651.06 1810.34 660.21
  A 0.62 0.61 47.0 0 1 1810.32 661.00
  L 1805.56 666.41
  A 0.48 0.48 0.0 0 1 1804.82 666.39
  C 1798.08 657.83 1783.95 657.58 1779.69 668.97
  C 1773.14 686.47 1787.59 690.59 1799.23 698.24
  C 1820.56 712.26 1811.32 749.04 1782.71 743.64
  Q 1773.94 741.98 1767.44 735.08
  A 0.65 0.65 0.0 0 1 1767.43 734.21
  L 1772.14 728.79
  A 0.51 0.50 -44.0 0 1 1772.92 728.80
  C 1779.14 736.56 1791.59 740.63 1798.85 731.80
  C 1804.71 724.68 1802.49 713.71 1796.46 708.03
  C 1791.85 703.70 1783.30 700.38 1777.44 695.56
  Z"
/>
<path fill="#06ace8" d="
  M 592.00 661.56
  L 592.00 655.44
  A 0.44 0.44 0.0 0 1 592.44 655.00
  L 633.81 655.00
  A 0.44 0.44 0.0 0 1 634.25 655.44
  L 634.25 661.56
  A 0.44 0.44 0.0 0 1 633.81 662.00
  L 617.69 662.00
  A 0.44 0.44 0.0 0 0 617.25 662.44
  L 617.25 741.56
  A 0.44 0.44 0.0 0 1 616.81 742.00
  L 608.94 742.00
  A 0.44 0.44 0.0 0 1 608.50 741.56
  L 608.50 662.44
  A 0.44 0.44 0.0 0 0 608.06 662.00
  L 592.44 662.00
  A 0.44 0.44 0.0 0 1 592.00 661.56
  Z"
/>
<path fill="#06ace8" d="
  M 704.10 692.72
  L 727.90 692.82
  A 0.60 0.60 0.0 0 1 728.50 693.42
  L 728.50 699.40
  A 0.60 0.60 0.0 0 1 727.90 700.00
  L 704.10 700.00
  A 0.60 0.60 0.0 0 0 703.50 700.60
  L 703.50 734.15
  A 0.60 0.60 0.0 0 0 704.09 734.75
  L 730.66 735.08
  A 0.60 0.60 0.0 0 1 731.25 735.68
  L 731.25 741.40
  A 0.60 0.60 0.0 0 1 730.65 742.00
  L 695.35 742.00
  A 0.60 0.60 0.0 0 1 694.75 741.40
  L 694.75 655.60
  A 0.60 0.60 0.0 0 1 695.35 655.00
  L 729.40 655.00
  A 0.60 0.60 0.0 0 1 730.00 655.60
  L 730.00 661.40
  A 0.60 0.60 0.0 0 1 729.40 662.00
  L 704.10 662.00
  A 0.60 0.60 0.0 0 0 703.50 662.60
  L 703.50 692.12
  A 0.60 0.60 0.0 0 0 704.10 692.72
  Z"
/>
<path fill="#06ace8" d="
  M 914.25 692.71
  C 928.07 693.31 937.32 692.12 946.03 692.90
  A 0.66 0.65 2.8 0 0 946.75 692.25
  L 946.75 655.62
  A 0.58 0.58 0.0 0 1 947.32 655.04
  L 955.11 654.98
  A 0.64 0.63 -0.0 0 1 955.75 655.61
  L 955.75 741.37
  A 0.63 0.63 0.0 0 1 955.12 742.00
  L 947.38 742.00
  A 0.63 0.63 0.0 0 1 946.75 741.37
  L 946.75 700.64
  A 0.62 0.61 90.0 0 0 946.14 700.02
  L 914.32 699.99
  A 0.57 0.57 0.0 0 0 913.75 700.56
  L 913.75 741.37
  A 0.63 0.62 -90.0 0 1 913.13 742.00
  L 905.38 742.00
  A 0.63 0.63 0.0 0 1 904.75 741.37
  L 904.75 655.41
  A 0.40 0.40 0.0 0 1 905.15 655.01
  L 913.25 654.99
  A 0.51 0.50 90.0 0 1 913.75 655.50
  L 913.75 692.19
  A 0.52 0.52 0.0 0 0 914.25 692.71
  Z"
/>
<path fill="#06ace8" d="
  M 1034.41 670.72
  L 1034.13 670.79
  A 0.18 0.18 0.0 0 0 1034.00 670.97
  L 1034.00 741.82
  A 0.18 0.18 0.0 0 1 1033.82 742.00
  L 1025.93 742.00
  A 0.18 0.18 0.0 0 1 1025.75 741.82
  L 1025.75 655.19
  A 0.18 0.18 0.0 0 1 1025.93 655.01
  L 1036.69 654.99
  A 0.18 0.18 0.0 0 1 1036.86 655.10
  L 1066.64 726.44
  A 0.18 0.18 0.0 0 0 1066.99 726.37
  L 1067.00 655.18
  A 0.18 0.18 0.0 0 1 1067.18 655.00
  L 1075.07 655.00
  A 0.18 0.18 0.0 0 1 1075.25 655.18
  L 1075.25 741.81
  A 0.18 0.18 0.0 0 1 1075.07 741.99
  L 1064.64 742.01
  A 0.18 0.18 0.0 0 1 1064.47 741.90
  L 1034.62 670.82
  A 0.18 0.18 0.0 0 0 1034.41 670.72
  Z"
/>
<path fill="#06ace8" d="
  M 1299.50 735.56
  L 1299.50 741.46
  A 0.54 0.54 0.0 0 1 1298.96 742.00
  L 1266.29 742.00
  A 0.54 0.54 0.0 0 1 1265.75 741.46
  L 1265.75 655.54
  A 0.54 0.54 0.0 0 1 1266.29 655.00
  L 1274.21 655.00
  A 0.54 0.54 0.0 0 1 1274.75 655.54
  L 1274.75 734.41
  A 0.54 0.54 0.0 0 0 1275.29 734.95
  L 1298.96 735.02
  A 0.54 0.54 0.0 0 1 1299.50 735.56
  Z"
/>
<rect fill="#06ace8" x="1591.75" y="655.01" width="9.00" height="86.98" rx="0.27"/>
<path fill="#06ace8" d="
  M 1680.10 692.72
  L 1703.90 692.82
  A 0.60 0.60 0.0 0 1 1704.50 693.42
  L 1704.50 699.40
  A 0.60 0.60 0.0 0 1 1703.90 700.00
  L 1680.10 700.00
  A 0.60 0.60 0.0 0 0 1679.50 700.60
  L 1679.50 734.15
  A 0.60 0.60 0.0 0 0 1680.09 734.75
  L 1706.66 735.08
  A 0.60 0.60 0.0 0 1 1707.25 735.68
  L 1707.25 741.40
  A 0.60 0.60 0.0 0 1 1706.65 742.00
  L 1671.35 742.00
  A 0.60 0.60 0.0 0 1 1670.75 741.40
  L 1670.75 655.60
  A 0.60 0.60 0.0 0 1 1671.35 655.00
  L 1705.40 655.00
  A 0.60 0.60 0.0 0 1 1706.00 655.60
  L 1706.00 661.40
  A 0.60 0.60 0.0 0 1 1705.40 662.00
  L 1680.10 662.00
  A 0.60 0.60 0.0 0 0 1679.50 662.60
  L 1679.50 692.12
  A 0.60 0.60 0.0 0 0 1680.10 692.72
  Z"
/>
<path fill="#ffffff" d="
  M 1161.44 733.56
  C 1146.40 722.31 1146.39 673.41 1162.77 662.32
  Q 1167.55 659.08 1173.02 660.50
  C 1195.17 666.25 1194.93 727.44 1175.04 735.91
  Q 1168.38 738.75 1161.44 733.56
  Z"
/>
<path fill="#ffffff" d="
  M 1372.44 733.56
  C 1357.89 721.48 1357.13 674.67 1372.95 662.90
  C 1378.91 658.46 1386.46 659.67 1391.42 665.18
  C 1403.87 679.00 1403.23 714.23 1393.62 729.33
  C 1388.90 736.74 1379.58 739.49 1372.44 733.56
  Z"
/>
<path fill="#06ace8" d="
  M 232.75 802.29
  Q 231.19 803.42 229.19 803.46
  Q 201.76 804.00 175.00 798.04
  Q 175.18 798.07 175.30 798.00
  A 0.19 0.19 0.0 0 0 175.30 797.67
  L 175.03 797.51
  Q 174.85 797.41 175.03 797.32
  Q 175.99 796.82 176.53 795.78
  C 179.35 790.26 183.10 786.49 186.96 781.84
  Q 193.18 774.35 199.26 766.76
  C 201.16 764.39 203.24 762.91 205.52 760.97
  C 208.18 758.71 209.63 753.67 211.57 752.32
  Q 217.91 747.92 221.66 741.17
  Q 222.00 740.56 223.15 739.40
  A 1.12 1.09 66.6 0 0 223.48 738.54
  Q 223.25 734.47 226.40 732.02
  Q 226.82 731.70 227.04 731.21
  Q 228.42 728.17 231.35 729.50
  A 0.27 0.26 23.0 0 0 231.71 729.36
  L 231.85 728.99
  Q 232.09 728.35 232.10 729.04
  C 232.16 736.55 231.37 800.89 232.75 802.29
  Z"
/>
</svg>
